<svg width="159" height="32" viewBox="0 0 159 32" fill="none" xmlns="http://www.w3.org/2000/svg">
<g clip-path="url(#clip0_1688_2013)">
<path d="M40.802 12.6735L40.6045 13.9111H35.4924L35.69 12.6735H40.802ZM35.6407 22.1785L37.4434 11.3616C37.5259 10.8171 37.7235 10.3633 38.0361 10.0002C38.3532 9.63722 38.7296 9.36493 39.1659 9.18342C39.6065 9.00191 40.0529 8.91113 40.5058 8.91113C40.8637 8.91113 41.1497 8.94 41.3637 8.99775C41.5822 9.05551 41.7405 9.10915 41.8392 9.15864L41.2218 10.421C41.1478 10.3963 41.0489 10.3653 40.9256 10.3282C40.8061 10.2911 40.6414 10.2725 40.4315 10.2725C39.9501 10.2725 39.5838 10.3942 39.3328 10.6376C39.0815 10.881 38.913 11.2378 38.8264 11.7082L37.0976 22.1785H35.6407ZM44.8197 9.50519L42.7205 22.1785H41.2635L43.3628 9.50519H44.8197ZM52.0076 18.2923L52.9461 12.6735H54.403L52.8225 22.1785H51.3656L51.6371 20.5696H51.5385C51.242 21.0522 50.8285 21.4627 50.2975 21.801C49.7667 22.1351 49.143 22.3022 48.4268 22.3022C47.8341 22.3022 47.328 22.1723 46.9082 21.9124C46.4922 21.6483 46.196 21.2523 46.019 20.7243C45.8461 20.1921 45.8255 19.5217 45.9573 18.7131L46.9698 12.6735H48.4268L47.4389 18.6141C47.328 19.3072 47.4329 19.86 47.7538 20.2725C48.0749 20.6851 48.538 20.8913 49.143 20.8913C49.5053 20.8913 49.8881 20.7985 50.2914 20.6129C50.6989 20.4272 51.0612 20.1426 51.3779 19.7589C51.6991 19.3752 51.9089 18.8864 52.0076 18.2923ZM59.4426 22.3765C58.5329 22.3765 57.7818 22.1743 57.1891 21.77C56.5964 21.3616 56.1827 20.7923 55.9481 20.0621C55.7136 19.3278 55.6766 18.4738 55.8372 17.5003C55.9974 16.5267 56.3167 15.6686 56.794 14.926C57.2713 14.1793 57.8662 13.5976 58.5781 13.1809C59.2903 12.7601 60.0723 12.5498 60.9242 12.5498C61.4183 12.5498 61.8937 12.6323 62.3505 12.7973C62.8072 12.9623 63.2024 13.2304 63.5359 13.6017C63.8693 13.9689 64.1017 14.4557 64.2335 15.0621C64.3653 15.6686 64.3571 16.4153 64.2088 17.3022L64.1099 17.921H56.8L56.9976 16.6586H62.8259C62.9204 16.1223 62.8957 15.6438 62.7519 15.223C62.6119 14.8022 62.3669 14.4701 62.017 14.2267C61.6715 13.9833 61.233 13.8616 60.702 13.8616C60.1545 13.8616 59.6443 14.0101 59.1708 14.3072C58.6976 14.6001 58.3025 14.9714 57.9854 15.421C57.6687 15.8666 57.4711 16.3204 57.3927 16.7824L57.2201 17.8715C57.0965 18.6595 57.1152 19.2865 57.2754 19.7527C57.4401 20.2189 57.7262 20.5551 58.1337 20.7614C58.5411 20.9635 59.0516 21.0646 59.6649 21.0646C60.0559 21.0646 60.4159 21.011 60.7453 20.9037C61.0747 20.7923 61.369 20.6273 61.6282 20.4087C61.8874 20.1859 62.1055 19.9095 62.2825 19.5795L63.6162 19.9755C63.3898 20.454 63.0709 20.8748 62.6593 21.2378C62.2518 21.5968 61.7742 21.8773 61.2267 22.0795C60.6837 22.2775 60.0888 22.3765 59.4426 22.3765ZM68.0397 16.4606L67.1012 22.1785H65.6443L67.2248 12.6735H68.6324L68.3855 14.1587H68.5088C68.8053 13.676 69.2068 13.2882 69.7128 12.9953C70.2192 12.6983 70.8303 12.5498 71.5466 12.5498C72.1803 12.5498 72.7155 12.6817 73.1517 12.9458C73.5921 13.2057 73.9028 13.6017 74.0839 14.1339C74.2691 14.6619 74.296 15.3303 74.1642 16.1389L73.1517 22.1785H71.6948L72.6826 16.2379C72.8059 15.4953 72.7092 14.9136 72.3924 14.4928C72.0795 14.072 71.5835 13.8616 70.9045 13.8616C70.4351 13.8616 70.0011 13.9627 69.6019 14.1648C69.2068 14.367 68.8711 14.6619 68.5954 15.0497C68.3239 15.4375 68.1386 15.9078 68.0397 16.4606ZM81.519 12.6735L81.3214 13.9111H76.407L76.6045 12.6735H81.519ZM78.4073 10.3963H79.8642L78.3579 19.4557C78.2919 19.8682 78.3023 20.1776 78.3886 20.3839C78.4793 20.5861 78.6153 20.7222 78.7961 20.7923C78.9813 20.8583 79.1811 20.8913 79.3951 20.8913C79.5557 20.8913 79.6872 20.8831 79.7902 20.8666C79.8929 20.846 79.9754 20.8295 80.0371 20.8171L80.136 22.1289C80.0248 22.1661 79.8746 22.2032 79.6853 22.2403C79.5 22.2816 79.2715 22.3022 79 22.3022C78.5884 22.3022 78.2015 22.2135 77.8392 22.0361C77.477 21.8587 77.1991 21.5885 77.0057 21.2255C76.8122 20.8625 76.761 20.4045 76.8514 19.8517L78.4073 10.3963ZM93.8419 13.9421H91.1377C91.0884 13.5914 90.9875 13.28 90.8352 13.0077C90.6831 12.7313 90.4875 12.4961 90.2488 12.3022C90.0101 12.1083 89.7342 11.9598 89.4216 11.8567C89.1127 11.7536 88.7773 11.702 88.4151 11.702C87.7608 11.702 87.1905 11.8649 86.705 12.1908C86.2194 12.5126 85.8426 12.9829 85.5752 13.6017C85.3075 14.2164 85.1738 14.9631 85.1738 15.8418C85.1738 16.7453 85.3075 17.5044 85.5752 18.1191C85.8467 18.7337 86.2254 19.1978 86.711 19.5114C87.1968 19.8249 87.7585 19.9817 88.3968 19.9817C88.7546 19.9817 89.0862 19.9342 89.3906 19.8394C89.6994 19.7445 89.9732 19.6063 90.2118 19.4248C90.4505 19.2391 90.648 19.0143 90.8045 18.7502C90.9651 18.4862 91.076 18.1851 91.1377 17.8468L93.8419 17.8592C93.7721 18.4408 93.597 19.0019 93.3172 19.5423C93.0416 20.0786 92.6689 20.5592 92.1998 20.9842C91.7345 21.4049 91.1791 21.7391 90.5327 21.9866C89.8907 22.23 89.1643 22.3517 88.3534 22.3517C87.2256 22.3517 86.2172 22.096 85.3283 21.5844C84.4432 21.0728 83.7434 20.3323 83.2291 19.3629C82.7186 18.3934 82.4635 17.2197 82.4635 15.8418C82.4635 14.4598 82.7227 13.2841 83.2414 12.3146C83.7602 11.3451 84.4638 10.6067 85.353 10.0993C86.2419 9.5877 87.242 9.33192 88.3534 9.33192C89.0862 9.33192 89.7652 9.43505 90.3907 9.64134C91.0204 9.84759 91.5783 10.1487 92.0639 10.5448C92.5497 10.9367 92.9449 11.4173 93.2493 11.9866C93.5581 12.5559 93.7557 13.2078 93.8419 13.9421ZM98.4138 22.3579C97.8087 22.3579 97.2695 22.2527 96.7963 22.0423C96.3227 21.8278 95.9485 21.5122 95.6725 21.0955C95.401 20.6747 95.265 20.1508 95.265 19.5238C95.265 18.9957 95.3618 18.5522 95.5552 18.1933C95.7487 17.8344 96.012 17.5456 96.3455 17.327C96.679 17.1083 97.0577 16.9433 97.4816 16.8319C97.9096 16.7205 98.3581 16.6421 98.8275 16.5968C99.3788 16.539 99.8236 16.4854 100.161 16.4359C100.498 16.3822 100.743 16.3039 100.896 16.2007C101.048 16.0976 101.124 15.945 101.124 15.7428V15.7057C101.124 15.3138 101.001 15.0106 100.754 14.796C100.511 14.5815 100.165 14.4743 99.7164 14.4743C99.2432 14.4743 98.8664 14.5794 98.5867 14.7898C98.3066 14.9961 98.1217 15.256 98.0309 15.5695L95.5985 15.3715C95.7218 14.794 95.9649 14.2948 96.3268 13.874C96.6891 13.4491 97.1563 13.1232 97.7284 12.8963C98.3047 12.6653 98.9714 12.5498 99.7287 12.5498C100.256 12.5498 100.76 12.6116 101.241 12.7354C101.727 12.8591 102.157 13.051 102.532 13.3109C102.91 13.5708 103.209 13.9049 103.427 14.3134C103.645 14.7176 103.754 15.2024 103.754 15.7676V22.1785H101.26V20.8604H101.186C101.034 21.1574 100.83 21.4194 100.575 21.6463C100.32 21.869 100.013 22.0444 99.6548 22.1723C99.2966 22.296 98.8829 22.3579 98.4138 22.3579ZM99.167 20.5386C99.5539 20.5386 99.8953 20.4623 100.192 20.3097C100.488 20.1529 100.721 19.9425 100.889 19.6785C101.058 19.4144 101.143 19.1153 101.143 18.7812V17.7725C101.06 17.8261 100.947 17.8757 100.803 17.921C100.663 17.9623 100.505 18.0015 100.328 18.0386C100.151 18.0716 99.9737 18.1025 99.7967 18.1314C99.6197 18.1562 99.4591 18.1789 99.3153 18.1995C99.0065 18.2449 98.7368 18.3171 98.5064 18.4161C98.2759 18.5151 98.0967 18.6492 97.9693 18.8183C97.8416 18.9833 97.7778 19.1896 97.7778 19.4371C97.7778 19.796 97.9074 20.0704 98.1669 20.2601C98.4302 20.4458 98.7637 20.5386 99.167 20.5386ZM108.425 9.50519V22.1785H105.795V9.50519H108.425ZM114.853 22.3641C113.878 22.3641 113.038 22.1661 112.334 21.77C111.635 21.3699 111.096 20.8047 110.717 20.0745C110.338 19.3402 110.149 18.4718 110.149 17.4693C110.149 16.4916 110.338 15.6335 110.717 14.895C111.096 14.1566 111.628 13.5811 112.316 13.1686C113.007 12.756 113.818 12.5498 114.748 12.5498C115.374 12.5498 115.956 12.6508 116.495 12.853C117.039 13.051 117.512 13.3501 117.915 13.7502C118.323 14.1504 118.64 14.6537 118.866 15.2602C119.093 15.8625 119.206 16.5679 119.206 17.3765V18.1005H111.198V16.4668H116.73C116.73 16.0873 116.648 15.7511 116.483 15.4582C116.318 15.1653 116.09 14.9363 115.798 14.7713C115.51 14.6021 115.174 14.5176 114.792 14.5176C114.392 14.5176 114.038 14.6104 113.73 14.796C113.425 14.9775 113.186 15.223 113.014 15.5324C112.841 15.8377 112.752 16.178 112.748 16.5535V18.1067C112.748 18.577 112.834 18.9833 113.007 19.3257C113.184 19.6681 113.433 19.9322 113.754 20.1178C114.075 20.3035 114.456 20.3963 114.897 20.3963C115.189 20.3963 115.456 20.355 115.699 20.2725C115.942 20.19 116.15 20.0662 116.323 19.9012C116.496 19.7362 116.627 19.5341 116.718 19.2948L119.15 19.4557C119.027 20.0415 118.774 20.5531 118.391 20.9903C118.012 21.4235 117.523 21.7618 116.922 22.0052C116.325 22.2445 115.635 22.3641 114.853 22.3641ZM123.552 16.6834V22.1785H120.922V12.6735H123.429V14.3505H123.54C123.75 13.7977 124.102 13.3604 124.596 13.0386C125.09 12.7127 125.688 12.5498 126.392 12.5498C127.051 12.5498 127.625 12.6941 128.115 12.9829C128.604 13.2717 128.985 13.6842 129.257 14.2205C129.529 14.7527 129.664 15.388 129.664 16.1265V22.1785H127.034V16.5968C127.038 16.0151 126.89 15.5613 126.59 15.2354C126.289 14.9054 125.876 14.7403 125.349 14.7403C124.995 14.7403 124.682 14.8167 124.41 14.9693C124.143 15.122 123.933 15.3447 123.781 15.6376C123.632 15.9264 123.556 16.275 123.552 16.6834ZM135.232 22.3332C134.511 22.3332 133.859 22.1475 133.275 21.7762C132.694 21.4008 132.233 20.8501 131.892 20.124C131.554 19.3938 131.386 18.4986 131.386 17.4384C131.386 16.3493 131.56 15.4437 131.91 14.7218C132.26 13.9957 132.725 13.4532 133.306 13.0943C133.89 12.7313 134.53 12.5498 135.226 12.5498C135.757 12.5498 136.199 12.6405 136.553 12.822C136.911 12.9994 137.199 13.2222 137.417 13.4903C137.64 13.7544 137.808 14.0143 137.924 14.2701H138.004V9.50519H140.628V22.1785H138.035V20.6562H137.924C137.8 20.9202 137.625 21.1822 137.399 21.4421C137.177 21.6979 136.886 21.9103 136.528 22.0795C136.174 22.2486 135.742 22.3332 135.232 22.3332ZM136.065 20.2354C136.489 20.2354 136.847 20.1199 137.14 19.8888C137.436 19.6537 137.662 19.3257 137.819 18.905C137.979 18.4841 138.059 17.9912 138.059 17.426C138.059 16.8608 137.981 16.3699 137.825 15.9532C137.668 15.5366 137.442 15.2148 137.146 14.9879C136.849 14.761 136.489 14.6475 136.065 14.6475C135.633 14.6475 135.269 14.7651 134.972 15.0002C134.676 15.2354 134.452 15.5613 134.299 15.978C134.147 16.3946 134.071 16.8773 134.071 17.426C134.071 17.9788 134.147 18.4677 134.299 18.8926C134.456 19.3134 134.68 19.6434 134.972 19.8827C135.269 20.1178 135.633 20.2354 136.065 20.2354ZM145.494 22.3579C144.889 22.3579 144.35 22.2527 143.877 22.0423C143.403 21.8278 143.029 21.5122 142.753 21.0955C142.481 20.6747 142.345 20.1508 142.345 19.5238C142.345 18.9957 142.442 18.5522 142.636 18.1933C142.829 17.8344 143.093 17.5456 143.426 17.327C143.759 17.1083 144.138 16.9433 144.562 16.8319C144.99 16.7205 145.439 16.6421 145.908 16.5968C146.46 16.539 146.904 16.4854 147.242 16.4359C147.579 16.3822 147.824 16.3039 147.976 16.2007C148.129 16.0976 148.205 15.945 148.205 15.7428V15.7057C148.205 15.3138 148.081 15.0106 147.834 14.796C147.592 14.5815 147.246 14.4743 146.797 14.4743C146.324 14.4743 145.947 14.5794 145.667 14.7898C145.387 14.9961 145.202 15.256 145.111 15.5695L142.679 15.3715C142.803 14.794 143.045 14.2948 143.408 13.874C143.77 13.4491 144.237 13.1232 144.809 12.8963C145.385 12.6653 146.052 12.5498 146.809 12.5498C147.336 12.5498 147.84 12.6116 148.322 12.7354C148.808 12.8591 149.238 13.051 149.612 13.3109C149.991 13.5708 150.289 13.9049 150.508 14.3134C150.726 14.7176 150.835 15.2024 150.835 15.7676V22.1785H148.34V20.8604H148.266C148.114 21.1574 147.91 21.4194 147.655 21.6463C147.4 21.869 147.093 22.0444 146.735 22.1723C146.377 22.296 145.964 22.3579 145.494 22.3579ZM146.247 20.5386C146.634 20.5386 146.976 20.4623 147.272 20.3097C147.569 20.1529 147.801 19.9425 147.97 19.6785C148.139 19.4144 148.223 19.1153 148.223 18.7812V17.7725C148.141 17.8261 148.028 17.8757 147.884 17.921C147.744 17.9623 147.585 18.0015 147.408 18.0386C147.231 18.0716 147.054 18.1025 146.877 18.1314C146.7 18.1562 146.54 18.1789 146.396 18.1995C146.087 18.2449 145.818 18.3171 145.587 18.4161C145.356 18.5151 145.177 18.6492 145.05 18.8183C144.922 18.9833 144.859 19.1896 144.859 19.4371C144.859 19.796 144.988 20.0704 145.247 20.2601C145.511 20.4458 145.844 20.5386 146.247 20.5386ZM152.875 22.1785V12.6735H155.425V14.3319H155.524C155.697 13.742 155.987 13.2964 156.394 12.9953C156.802 12.69 157.271 12.5374 157.802 12.5374C157.934 12.5374 158.076 12.5456 158.228 12.5621C158.38 12.5786 158.514 12.6013 158.629 12.6302V14.9693C158.506 14.9322 158.335 14.8992 158.117 14.8703C157.899 14.8414 157.699 14.827 157.518 14.827C157.131 14.827 156.785 14.9115 156.481 15.0807C156.18 15.2457 155.942 15.4767 155.765 15.7738C155.592 16.0708 155.505 16.4132 155.505 16.801V22.1785H152.875Z" fill="#2653C7"/>
<path d="M10.1203 1.01286C10.1203 0.453471 9.66787 0 9.10977 0C8.55167 0 8.09924 0.453471 8.09924 1.01286V4.05141C8.09924 4.6108 8.55167 5.06427 9.10977 5.06427C9.66787 5.06427 10.1203 4.6108 10.1203 4.05141V1.01286Z" fill="#2653C7"/>
<path d="M22.2466 1.01286C22.2466 0.453471 21.7942 0 21.2361 0C20.678 0 20.2256 0.453471 20.2256 1.01286V4.05141C20.2256 4.6108 20.678 5.06427 21.2361 5.06427C21.7942 5.06427 22.2466 4.6108 22.2466 4.05141V1.01286Z" fill="#2653C7"/>
<path fill-rule="evenodd" clip-rule="evenodd" d="M17.3622 16.8131C17.2566 17.6376 16.9154 18.3876 16.4061 18.992C15.8715 19.6303 15.152 20.1068 14.3302 20.3405L14.2947 20.3506L14.2145 20.3718L14.2078 20.3735L7.84399 22.0834V20.6003C7.84399 20.5673 7.84399 20.5343 7.84738 20.5013C7.88455 19.8808 8.27389 19.3543 8.81778 19.1215C8.87942 19.0944 8.94277 19.0716 9.00865 19.0538L9.06861 19.0377L17.3613 16.8105V16.8131H17.3622Z" fill="#2653C7"/>
<path fill-rule="evenodd" clip-rule="evenodd" d="M22.503 11.3442C22.2868 13.0363 21.0731 14.4161 19.471 14.8716L19.4355 14.8817L19.3562 14.9029H19.3553L19.3486 14.9046L7.84399 17.9943V16.5113C7.84399 15.8476 8.24516 15.2779 8.81778 15.0324L9.00865 14.9647L9.06776 14.9486L22.5021 11.3408V11.3442H22.503Z" fill="#2653C7"/>
<path fill-rule="evenodd" clip-rule="evenodd" d="M6.33094 3.54525H24.0152C26.3871 3.54525 28.3099 5.4725 28.3099 7.84988V22.1785H30.331V7.84988C30.331 4.35371 27.5033 1.51953 24.0152 1.51953H6.33094C2.84281 1.51953 0.0151367 4.35371 0.0151367 7.84988V25.5748C0.0151367 29.071 2.84281 31.9052 6.33094 31.9052H20.5468V29.8795H6.33094C3.95902 29.8795 2.03619 27.9522 2.03619 25.5748V7.84988C2.03619 5.4725 3.95902 3.54525 6.33094 3.54525Z" fill="#2653C7"/>
<path fill-rule="evenodd" clip-rule="evenodd" d="M30.346 22.415V22.083H20.5468V31.9048H20.8779L30.346 22.415Z" fill="#2653C7"/>
</g>
<defs>
<clipPath id="clip0_1688_2013">
<rect width="159" height="32" fill="white"/>
</clipPath>
</defs>
</svg>
