<svg xmlns="http://www.w3.org/2000/svg" width="1440" height="526" viewBox="0 0 1440 526" fill="none"><path d="M665 750.953L617 763.878H2057V349L2009 370.77C1961 392.541 1865 436.082 1769 459.512C1673 482.942 1577 486.262 1481 467.709C1385 449.157 1289 408.732 1193 441.523C1097 474.315 1001 580.322 905 646.251C809 712.179 713 738.029 665 750.953Z" fill="url(#paint0_linear_3314_431)"></path><path opacity="0.24" d="M617 763.878L665 750.953C713 738.029 809 712.179 905 646.251C1001 580.322 1097 474.315 1193 441.523C1289 408.732 1385 449.157 1481 467.709C1577 486.262 1673 482.942 1769 459.512C1865 436.082 1961 392.541 2009 370.77L2057 349" stroke="white" stroke-width="6"></path><path d="M-546.5 799.936L-615 818.38H1440V226.315L1371.5 257.383C1303 288.451 1166 350.588 1029 384.025C892 417.462 755 422.199 618 395.723C481 369.247 344 311.557 207 358.354C69.9999 405.15 -67 556.431 -204 650.517C-341 744.602 -478 781.491 -546.5 799.936Z" fill="url(#paint1_linear_3314_431)"></path><path opacity="0.24" d="M-615 818.381L-546.5 799.936C-478 781.491 -341 744.602 -204 650.517C-67 556.431 70 405.15 207 358.354C344 311.557 481 369.247 618 395.723C755 422.199 892 417.462 1029 384.025C1166 350.588 1303 288.451 1371.5 257.383L1440 226.315" stroke="white" stroke-width="6"></path><path d="M48 153.953L0 166.878H1440V-248L1392 -226.23C1344 -204.459 1248 -160.918 1152 -137.488C1056 -114.058 960 -110.738 864 -129.291C768 -147.843 672 -188.268 576 -155.477C480 -122.685 384 -16.6776 288 49.2508C192 115.179 96 141.029 48 153.953Z" fill="url(#paint2_linear_3314_431)"></path><path opacity="0.24" d="M0 166.878L48 153.953C96 141.029 192 115.179 288 49.2508C384 -16.6776 480 -122.685 576 -155.477C672 -188.268 768 -147.843 864 -129.291C960 -110.738 1056 -114.058 1152 -137.488C1248 -160.918 1344 -204.459 1392 -226.23L1440 -248" stroke="white" stroke-width="6"></path><defs><linearGradient id="paint0_linear_3314_431" x1="1336.94" y1="349" x2="1336.94" y2="764.185" gradientUnits="userSpaceOnUse"><stop stop-color="white" stop-opacity="0.08"></stop><stop offset="1" stop-color="white" stop-opacity="0"></stop></linearGradient><linearGradient id="paint1_linear_3314_431" x1="412.413" y1="226.315" x2="412.413" y2="818.819" gradientUnits="userSpaceOnUse"><stop stop-color="white" stop-opacity="0.08"></stop><stop offset="1" stop-color="white" stop-opacity="0"></stop></linearGradient><linearGradient id="paint2_linear_3314_431" x1="719.939" y1="-248" x2="719.939" y2="167.185" gradientUnits="userSpaceOnUse"><stop stop-color="white" stop-opacity="0.08"></stop><stop offset="1" stop-color="white" stop-opacity="0"></stop></linearGradient></defs></svg>