<svg xmlns="http://www.w3.org/2000/svg" width="1920" height="809" viewBox="0 0 1920 809" fill="none"><path d="M41.6 783.891L-24 809H1944V3L1878.4 45.2943C1812.8 87.5885 1681.6 172.177 1550.4 217.696C1419.2 263.215 1288 269.664 1156.8 233.621C1025.6 197.578 894.4 119.044 763.2 182.749C632 246.454 500.8 452.399 369.6 580.481C238.4 708.563 107.2 758.781 41.6 783.891Z" fill="url(#paint0_linear_3296_4045)"></path><path opacity="0.24" d="M-24 809L41.6 783.891C107.2 758.781 238.4 708.563 369.6 580.481C500.8 452.399 632 246.454 763.2 182.749C894.4 119.044 1025.6 197.578 1156.8 233.621C1288 269.664 1419.2 263.215 1550.4 217.696C1681.6 172.177 1812.8 87.5885 1878.4 45.2943L1944 3" stroke="#FF691E" stroke-width="6"></path><defs><linearGradient id="paint0_linear_3296_4045" x1="959.917" y1="3" x2="959.917" y2="809.597" gradientUnits="userSpaceOnUse"><stop stop-color="#FF691E" stop-opacity="0.08"></stop><stop offset="1" stop-color="#FF691E" stop-opacity="0"></stop></linearGradient></defs></svg>