<svg xmlns="http://www.w3.org/2000/svg" width="159" height="27" viewBox="0 0 159 27" fill="none"><path d="M12.8785 26L4.7505 16.048V26H0.2705V3.664H4.7505V13.68L12.8785 3.664H18.2865L9.0705 14.736L18.5425 26H12.8785ZM19.3372 17.072C19.3372 15.28 19.6892 13.6907 20.3932 12.304C21.1186 10.9173 22.0893 9.85067 23.3053 9.104C24.5426 8.35733 25.9186 7.984 27.4333 7.984C28.7559 7.984 29.9079 8.25067 30.8893 8.784C31.8919 9.31733 32.6919 9.98933 33.2893 10.8V8.272H37.8013V26H33.2893V23.408C32.7133 24.24 31.9133 24.9333 30.8893 25.488C29.8866 26.0213 28.7239 26.288 27.4013 26.288C25.9079 26.288 24.5426 25.904 23.3053 25.136C22.0893 24.368 21.1186 23.2907 20.3932 21.904C19.6892 20.496 19.3372 18.8853 19.3372 17.072ZM33.2893 17.136C33.2893 16.048 33.0759 15.12 32.6493 14.352C32.2226 13.5627 31.6466 12.9653 30.9213 12.56C30.1959 12.1333 29.4173 11.92 28.5853 11.92C27.7533 11.92 26.9853 12.1227 26.2812 12.528C25.5773 12.9333 25.0013 13.5307 24.5533 14.32C24.1266 15.088 23.9133 16.0053 23.9133 17.072C23.9133 18.1387 24.1266 19.0773 24.5533 19.888C25.0013 20.6773 25.5773 21.2853 26.2812 21.712C27.0066 22.1387 27.7746 22.352 28.5853 22.352C29.4173 22.352 30.1959 22.1493 30.9213 21.744C31.6466 21.3173 32.2226 20.72 32.6493 19.952C33.0759 19.1627 33.2893 18.224 33.2893 17.136ZM46.3928 11.952V20.528C46.3928 21.1253 46.5314 21.5627 46.8088 21.84C47.1074 22.096 47.5981 22.224 48.2808 22.224H50.3608V26H47.5448C43.7688 26 41.8808 24.1653 41.8808 20.496V11.952H39.7688V8.272H41.8808V3.888H46.3928V8.272H50.3608V11.952H46.3928ZM69.063 16.752C69.063 17.392 69.0203 17.968 68.935 18.48H55.975C56.0817 19.76 56.5297 20.7627 57.319 21.488C58.1083 22.2133 59.079 22.576 60.231 22.576C61.895 22.576 63.079 21.8613 63.783 20.432H68.615C68.103 22.1387 67.1217 23.5467 65.671 24.656C64.2203 25.744 62.439 26.288 60.327 26.288C58.6203 26.288 57.0843 25.9147 55.719 25.168C54.375 24.4 53.319 23.3227 52.551 21.936C51.8043 20.5493 51.431 18.9493 51.431 17.136C51.431 15.3013 51.8043 13.6907 52.551 12.304C53.2977 10.9173 54.343 9.85067 55.687 9.104C57.031 8.35733 58.5777 7.984 60.327 7.984C62.0123 7.984 63.5163 8.34667 64.839 9.072C66.183 9.79733 67.2177 10.832 67.943 12.176C68.6897 13.4987 69.063 15.024 69.063 16.752ZM64.423 15.472C64.4017 14.32 63.9857 13.4027 63.175 12.72C62.3643 12.016 61.3723 11.664 60.199 11.664C59.0897 11.664 58.151 12.0053 57.383 12.688C56.6363 13.3493 56.1777 14.2773 56.007 15.472H64.423ZM102.31 3.664V26H97.83V11.472L91.846 26H88.454L82.438 11.472V26H77.958V3.664H83.046L90.15 20.272L97.254 3.664H102.31ZM108.011 6.16C107.222 6.16 106.561 5.91467 106.027 5.424C105.515 4.912 105.259 4.28267 105.259 3.536C105.259 2.78933 105.515 2.17067 106.027 1.68C106.561 1.168 107.222 0.911999 108.011 0.911999C108.801 0.911999 109.451 1.168 109.963 1.68C110.497 2.17067 110.763 2.78933 110.763 3.536C110.763 4.28267 110.497 4.912 109.963 5.424C109.451 5.91467 108.801 6.16 108.011 6.16ZM110.219 8.272V26H105.739V8.272H110.219ZM118.126 2.32V26H113.646V2.32H118.126ZM126.032 2.32V26H121.552V2.32H126.032ZM145.938 16.752C145.938 17.392 145.895 17.968 145.81 18.48H132.85C132.957 19.76 133.405 20.7627 134.194 21.488C134.983 22.2133 135.954 22.576 137.106 22.576C138.77 22.576 139.954 21.8613 140.658 20.432H145.49C144.978 22.1387 143.997 23.5467 142.546 24.656C141.095 25.744 139.314 26.288 137.202 26.288C135.495 26.288 133.959 25.9147 132.594 25.168C131.25 24.4 130.194 23.3227 129.426 21.936C128.679 20.5493 128.306 18.9493 128.306 17.136C128.306 15.3013 128.679 13.6907 129.426 12.304C130.173 10.9173 131.218 9.85067 132.562 9.104C133.906 8.35733 135.453 7.984 137.202 7.984C138.887 7.984 140.391 8.34667 141.714 9.072C143.058 9.79733 144.093 10.832 144.818 12.176C145.565 13.4987 145.938 15.024 145.938 16.752ZM141.298 15.472C141.277 14.32 140.861 13.4027 140.05 12.72C139.239 12.016 138.247 11.664 137.074 11.664C135.965 11.664 135.026 12.0053 134.258 12.688C133.511 13.3493 133.053 14.2773 132.882 15.472H141.298ZM152.688 11.024C153.264 10.0853 154.011 9.34933 154.928 8.816C155.867 8.28267 156.933 8.016 158.128 8.016V12.72H156.944C155.536 12.72 154.469 13.0507 153.744 13.712C153.04 14.3733 152.688 15.5253 152.688 17.168V26H148.208V8.272H152.688V11.024Z" fill="white"></path></svg>