<svg xmlns="http://www.w3.org/2000/svg" viewBox="0 0 120 120" fill="none">
  <!-- AI-Generated Reports - Document with charts -->
  <defs>
    <linearGradient id="goldGradA" x1="0%" y1="0%" x2="100%" y2="100%">
      <stop offset="0%" style="stop-color:#b8860b"/>
      <stop offset="100%" style="stop-color:#daa520"/>
    </linearGradient>
  </defs>

  <!-- Document background -->
  <rect x="25" y="10" width="70" height="90" rx="4" fill="white" stroke="url(#goldGradA)" stroke-width="2"/>

  <!-- Document fold -->
  <path d="M75 10 L95 30 L75 30 Z" fill="#f5f5f5" stroke="url(#goldGradA)" stroke-width="1"/>

  <!-- Header line -->
  <rect x="35" y="20" width="30" height="4" rx="2" fill="url(#goldGradA)"/>

  <!-- Bar chart -->
  <rect x="35" y="65" width="8" height="25" rx="1" fill="url(#goldGradA)" opacity="0.6"/>
  <rect x="47" y="55" width="8" height="35" rx="1" fill="url(#goldGradA)" opacity="0.8"/>
  <rect x="59" y="45" width="8" height="45" rx="1" fill="url(#goldGradA)"/>
  <rect x="71" y="60" width="8" height="30" rx="1" fill="url(#goldGradA)" opacity="0.7"/>

  <!-- Trend line -->
  <polyline points="39,62 51,52 63,42 75,55" stroke="#b8860b" stroke-width="2" fill="none" stroke-linecap="round"/>
  <circle cx="39" cy="62" r="3" fill="#daa520"/>
  <circle cx="51" cy="52" r="3" fill="#daa520"/>
  <circle cx="63" cy="42" r="3" fill="#daa520"/>
  <circle cx="75" cy="55" r="3" fill="#daa520"/>

  <!-- AI sparkle -->
  <g transform="translate(80, 15)">
    <line x1="0" y1="-8" x2="0" y2="8" stroke="#daa520" stroke-width="2"/>
    <line x1="-8" y1="0" x2="8" y2="0" stroke="#daa520" stroke-width="2"/>
    <line x1="-5" y1="-5" x2="5" y2="5" stroke="#daa520" stroke-width="1.5"/>
    <line x1="5" y1="-5" x2="-5" y2="5" stroke="#daa520" stroke-width="1.5"/>
  </g>
</svg>
