<svg xmlns="http://www.w3.org/2000/svg" viewBox="0 0 100 100">
  <defs>
    <linearGradient id="goldGrad" x1="0%" y1="0%" x2="100%" y2="100%">
      <stop offset="0%" style="stop-color:#daa520"/>
      <stop offset="100%" style="stop-color:#b8860b"/>
    </linearGradient>
  </defs>

  <!-- Browser/Web App Window -->
  <rect x="10" y="15" width="80" height="60" rx="4" fill="#374151" stroke="url(#goldGrad)" stroke-width="2"/>

  <!-- Browser Title Bar -->
  <rect x="10" y="15" width="80" height="10" rx="4" fill="#1f2937"/>
  <circle cx="17" cy="20" r="2" fill="#ef4444"/>
  <circle cx="24" cy="20" r="2" fill="#fbbf24"/>
  <circle cx="31" cy="20" r="2" fill="#22c55e"/>

  <!-- URL Bar -->
  <rect x="38" y="17" width="45" height="6" rx="2" fill="#4b5563"/>

  <!-- Map/Location Content -->
  <rect x="15" y="30" width="35" height="40" rx="2" fill="#1f2937"/>

  <!-- Map Pin Icons -->
  <circle cx="25" cy="42" r="4" fill="url(#goldGrad)"/>
  <path d="M25 38 L25 46 M21 42 L29 42" stroke="#1f2937" stroke-width="1.5"/>

  <circle cx="38" cy="52" r="3" fill="#22c55e"/>
  <circle cx="30" cy="60" r="3" fill="#3b82f6"/>
  <circle cx="42" cy="45" r="2.5" fill="#f59e0b"/>

  <!-- Connection lines -->
  <line x1="25" y1="42" x2="38" y2="52" stroke="#daa520" stroke-width="0.5" stroke-dasharray="2,1"/>
  <line x1="38" y1="52" x2="30" y2="60" stroke="#daa520" stroke-width="0.5" stroke-dasharray="2,1"/>

  <!-- Right Side: Business Cards/List -->
  <rect x="55" y="30" width="30" height="11" rx="2" fill="#1f2937"/>
  <rect x="57" y="32" width="5" height="7" rx="1" fill="url(#goldGrad)"/>
  <rect x="64" y="33" width="18" height="2" rx="1" fill="#6b7280"/>
  <rect x="64" y="36" width="12" height="1.5" rx="0.5" fill="#4b5563"/>

  <rect x="55" y="43" width="30" height="11" rx="2" fill="#1f2937"/>
  <rect x="57" y="45" width="5" height="7" rx="1" fill="#22c55e"/>
  <rect x="64" y="46" width="18" height="2" rx="1" fill="#6b7280"/>
  <rect x="64" y="49" width="14" height="1.5" rx="0.5" fill="#4b5563"/>

  <rect x="55" y="56" width="30" height="11" rx="2" fill="#1f2937"/>
  <rect x="57" y="58" width="5" height="7" rx="1" fill="#3b82f6"/>
  <rect x="64" y="59" width="18" height="2" rx="1" fill="#6b7280"/>
  <rect x="64" y="62" width="10" height="1.5" rx="0.5" fill="#4b5563"/>

  <!-- Notification Bell -->
  <circle cx="82" cy="82" r="10" fill="url(#goldGrad)"/>
  <path d="M82 76 L82 80 M78 82 L86 82 M79 85 L85 85" stroke="#1f2937" stroke-width="1.5" stroke-linecap="round"/>
  <circle cx="86" cy="77" r="3" fill="#ef4444"/>
  <text x="86" y="79" font-size="4" fill="white" text-anchor="middle" font-weight="bold">3</text>

  <!-- Update Arrow -->
  <path d="M18 82 C18 78, 22 78, 22 82 L20 80 M22 82 L24 80" stroke="url(#goldGrad)" stroke-width="2" fill="none" stroke-linecap="round"/>

  <!-- Labels -->
  <text x="30" y="92" font-size="5" fill="#9ca3af" text-anchor="middle">Updates</text>
  <text x="70" y="92" font-size="5" fill="#9ca3af" text-anchor="middle">Alerts</text>
</svg>
