<svg xmlns="http://www.w3.org/2000/svg" viewBox="0 0 400 300" fill="none">
  <!-- Strategy Target Illustration -->
  <defs>
    <linearGradient id="goldGrad4" x1="0%" y1="0%" x2="100%" y2="100%">
      <stop offset="0%" style="stop-color:#b8860b"/>
      <stop offset="100%" style="stop-color:#daa520"/>
    </linearGradient>
  </defs>

  <!-- Target circles -->
  <circle cx="200" cy="150" r="100" stroke="url(#goldGrad4)" stroke-width="3" fill="none" opacity="0.3"/>
  <circle cx="200" cy="150" r="70" stroke="url(#goldGrad4)" stroke-width="3" fill="none" opacity="0.5"/>
  <circle cx="200" cy="150" r="40" stroke="url(#goldGrad4)" stroke-width="3" fill="none" opacity="0.7"/>
  <circle cx="200" cy="150" r="15" fill="url(#goldGrad4)"/>

  <!-- Arrow hitting bullseye -->
  <line x1="320" y1="30" x2="210" y2="140" stroke="#b8860b" stroke-width="4"/>
  <polygon points="205,145 220,130 215,150 235,145" fill="url(#goldGrad4)"/>

  <!-- Arrow feathers -->
  <line x1="320" y1="30" x2="340" y2="20" stroke="#1f2937" stroke-width="2"/>
  <line x1="320" y1="30" x2="335" y2="45" stroke="#1f2937" stroke-width="2"/>
  <line x1="320" y1="30" x2="340" y2="40" stroke="#1f2937" stroke-width="2"/>

  <!-- Floating checkmarks -->
  <path d="M80 80 L90 90 L110 60" stroke="url(#goldGrad4)" stroke-width="3" fill="none" stroke-linecap="round"/>
  <path d="M300 220 L310 230 L330 200" stroke="url(#goldGrad4)" stroke-width="3" fill="none" stroke-linecap="round"/>

  <!-- Stars -->
  <polygon points="70,200 73,210 83,210 75,217 78,227 70,221 62,227 65,217 57,210 67,210" fill="url(#goldGrad4)" opacity="0.6"/>
  <polygon points="330,100 332,106 338,106 333,110 335,116 330,112 325,116 327,110 322,106 328,106" fill="url(#goldGrad4)" opacity="0.6"/>
</svg>
