<?xml version="1.0" encoding="utf-8"?>
<svg viewBox="81.796 154.977 196.407 29.44" xmlns="http://www.w3.org/2000/svg">
  <g data-v-70b83f88="" fill="#070707" class="iconlinesvg-g iconlinesvg" transform="matrix(1, 0, 0, 1, 81.791641, 154.974747)">
    <g class="tp-name">
      <g transform="translate(0, 0)">
        <g data-gra="path-name" fill="#070707" transform="scale(1)">
          <path d="M21.19-15.89L21.19-15.89L18.23-15.89Q17.13-20.45 11.95-20.57L11.95-20.57Q4.80-20.21 4.56-11.46L4.56-11.46Q4.56-2.09 12.07-2.09L12.07-2.09Q17.25-2.22 18.48-8.38L18.48-8.38L21.44-8.38Q20.08 0.12 11.46 0.37L11.46 0.37Q1.60 0 1.36-11.33L1.36-11.33Q1.85-22.67 11.95-23.16L11.95-23.16Q19.96-22.92 21.19-15.89Z" transform="translate(-1.35523613963039, 23.162217659137575)"/>
        </g>
      </g>
      <g transform="translate(24, 4.374544492292772)">
        <g>
          <g class="imagesvg">
            <g>
              <rect fill="#070707" fill-opacity="0" stroke-width="2" x="0" y="0" width="20.69815195071869" height="20.696496231020205" class="image-rect"/>
              <svg x="0" y="0" width="20.69815195071869" height="20.696496231020205" filtersec="colorsb9412934711" class="image-svg-svg primary" style="overflow: visible;">
                <svg xmlns="http://www.w3.org/2000/svg" viewBox="1.2552919387817383 1.2552919387817383 97.52207946777344 97.51396179199219">
                  <g transform="matrix(.69 0 0 .69 15.5 15.5)">
                    <path fill="#070707" d="M58.22-12.54c28.35 3.7 50.66 26.01 54.35 54.36a4.067 4.067 0 0 0 4.03 3.55c.18 0 .35-.01.53-.03a4.074 4.074 0 0 0 3.53-4.55v-.01c-4.18-32-29.37-57.19-61.37-61.37a4.072 4.072 0 0 0-4.32 3.8 4.076 4.076 0 0 0 3.25 4.25zM-17.09 45.34a4.074 4.074 0 0 0 4.55-3.52c3.69-28.35 26.01-50.67 54.36-54.36 2.23-.29 3.8-2.33 3.51-4.56s-2.33-3.8-4.56-3.51c-32 4.18-57.19 29.37-61.37 61.37a4.07 4.07 0 0 0 3.49 4.58h.02zM41.82 112.58c-28.35-3.69-50.67-26-54.36-54.35a4.067 4.067 0 0 0-4.56-3.51c-2.23.29-3.8 2.33-3.51 4.56 4.18 32 29.37 57.19 61.37 61.37.18.02.35.03.53.03a4.06 4.06 0 0 0 4.08-4.06 4.064 4.064 0 0 0-3.56-4.05l.01.01zM117.14 54.71a4.067 4.067 0 0 0-4.56 3.51c-3.69 28.35-26.01 50.66-54.35 54.35a4.074 4.074 0 0 0-3.53 4.55 4.064 4.064 0 0 0 4.05 3.56c.18 0 .35-.01.53-.03 32-4.18 57.19-29.36 61.37-61.37a4.088 4.088 0 0 0-3.51-4.57z"/>
                    <path fill="#070707" d="M101.58 50.02c0-28.43-23.13-51.56-51.56-51.56S-1.53 21.6-1.53 50.02s23.13 51.56 51.56 51.56 51.55-23.13 51.55-51.56zM50.02 93.44c-23.94 0-43.41-19.49-43.41-43.41S26.1 6.61 50.02 6.61 93.43 26.1 93.43 50.03 73.96 93.44 50.02 93.44z"/>
                    <path fill="#070707" d="M50.02 21C33.99 21 21 33.99 21 50.02s12.99 29.02 29.02 29.02 29.02-12.99 29.02-29.02c-.01-16.02-13-29-29.02-29.02zm0 49.9c-11.53 0-20.88-9.35-20.88-20.88s9.35-20.88 20.88-20.88S70.9 38.49 70.9 50.02c-.01 11.53-9.35 20.87-20.88 20.88z"/>
                  </g>
                </svg>
              </svg>
            </g>
          </g>
        </g>
      </g>
      <g transform="translate(48, 0)">
        <g data-gra="path-name" fill="#070707" transform="scale(1)">
          <path d="M15.40-11.21L15.40-11.21L15.40 0L12.69 0L12.69-10.10Q12.94-14.66 9.12-14.41L9.12-14.41Q4.93-14.17 4.80-8.99L4.80-8.99L4.80 0L1.97 0L1.97-16.51L4.68-16.51L4.68-14.17Q6.65-17.00 9.73-17.00L9.73-17.00Q15.28-16.88 15.40-11.21Z" transform="translate(-1.9712525667351133, 23.162217659137575)"/>
        </g>
      </g>
      <g transform="translate(65, 0)">
        <g data-gra="path-name" fill="#070707" transform="scale(1)">
          <path d="M7.64-2.96L7.76-2.96L12.44-16.51L15.40-16.51L9.24 0L6.28 0L0.25-16.51L3.45-16.51L7.64-2.96Z" transform="translate(-0.2464065708418891, 23.162217659137575)"/>
        </g>
      </g>
      <g transform="translate(84, 0)">
        <g data-gra="path-name" fill="#070707" transform="scale(1)">
          <path d="M13.31-5.17L13.31-5.17L16.02-5.17Q15.52-2.34 13.06-0.62L13.06-0.62Q11.70 0.25 8.62 0.25L8.62 0.25Q1.60 0 1.23-7.76L1.23-7.76Q1.48-16.76 9.12-17.00L9.12-17.00Q16.14-16.88 16.26-7.27L16.26-7.27L4.19-7.27Q4.19-1.85 8.99-1.85L8.99-1.85Q12.44-2.09 13.31-5.17ZM4.19-9.49L4.19-9.49L13.43-9.49Q13.06-14.41 8.75-14.41L8.75-14.41Q4.68-14.05 4.19-9.49Z" transform="translate(-1.2320328542094459, 23.162217659137575)"/>
        </g>
      </g>
      <g transform="translate(103, 0)">
        <g data-gra="path-name" fill="#070707" transform="scale(1)">
          <path d="M5.17-9.61L5.17-9.61L5.17 0L2.34 0L2.34-16.51L5.05-16.51L5.05-13.68Q6.90-17.00 9.73-17.00L9.73-17.00Q9.98-17.00 10.23-16.88L10.23-16.88Q10.35-16.88 10.47-16.88L10.47-16.88L10.47-13.92L9.36-13.92Q5.42-13.68 5.17-9.61Z" transform="translate(-2.3408624229979464, 23.162217659137575)"/>
        </g>
      </g>
      <g transform="translate(115, 0)">
        <g data-gra="path-name" fill="#070707" transform="scale(1)">
          <path d="M8.13-16.51L8.13-14.17L5.42-14.17L5.42-3.45Q5.42-2.09 7.02-2.09L7.02-2.09L8.13-2.09L8.13 0Q7.39 0 6.41 0L6.41 0Q6.16 0 6.04 0L6.04 0Q2.46 0 2.59-3.20L2.59-3.20L2.59-14.17L0.49-14.17L0.49-16.51L2.59-16.51L2.59-21.07L5.42-21.07L5.42-16.51L8.13-16.51Z" transform="translate(-0.4928131416837783, 23.162217659137575)"/>
        </g>
      </g>
      <g transform="translate(126, 0)">
        <g data-gra="path-name" fill="#070707" transform="scale(1)">
          <path d="M2.34-22.55L5.42-22.55L5.42-2.71L16.88-2.71L16.88 0L2.34 0L2.34-22.55Z" transform="translate(-2.340862422997947, 23.162217659137575)"/>
        </g>
      </g>
      <g transform="translate(144, 0)">
        <g data-gra="path-name" fill="#070707" transform="scale(1)">
          <path d="M13.31-5.17L13.31-5.17L16.02-5.17Q15.52-2.34 13.06-0.62L13.06-0.62Q11.70 0.25 8.62 0.25L8.62 0.25Q1.60 0 1.23-7.76L1.23-7.76Q1.48-16.76 9.12-17.00L9.12-17.00Q16.14-16.88 16.26-7.27L16.26-7.27L4.19-7.27Q4.19-1.85 8.99-1.85L8.99-1.85Q12.44-2.09 13.31-5.17ZM4.19-9.49L4.19-9.49L13.43-9.49Q13.06-14.41 8.75-14.41L8.75-14.41Q4.68-14.05 4.19-9.49Z" transform="translate(-1.2320328542094459, 23.162217659137575)"/>
        </g>
      </g>
      <g transform="translate(163, 0)">
        <g data-gra="path-name" fill="#070707" transform="scale(1)">
          <path d="M4.56-11.46L4.56-11.46L1.97-11.46Q2.09-17.00 8.75-17.00L8.75-17.00Q14.66-16.76 14.78-12.32L14.78-12.32L14.78-2.83Q14.78-1.85 15.77-1.85L15.77-1.85Q15.89-1.85 16.14-1.85L16.14-1.85Q16.51-1.97 16.76-1.97L16.76-1.97L16.76 0Q16.51 0 16.14 0L16.14 0Q15.52 0.12 15.15 0.12L15.15 0.12Q12.20 0.12 12.32-2.22L12.32-2.22Q9.86 0.25 6.28 0.25L6.28 0.25Q1.36 0 1.11-4.31L1.11-4.31Q1.23-8.75 6.16-9.49L6.16-9.49L10.72-9.98Q12.20-10.23 12.20-11.95L12.20-11.95Q12.20-14.66 8.25-14.66L8.25-14.66Q4.80-14.66 4.56-11.46ZM12.07-5.67L12.07-5.67L12.07-8.38Q11.09-7.76 7.52-7.27L7.52-7.27Q4.07-7.02 4.07-4.68L4.07-4.68Q4.07-1.85 6.90-1.85L6.90-1.85Q11.70-2.22 12.07-5.67Z" transform="translate(-1.1088295687885013, 23.162217659137575)"/>
        </g>
      </g>
      <g transform="translate(182, 0)">
        <g data-gra="path-name" fill="#070707" transform="scale(1)">
          <path d="M4.44-7.39L4.44-7.39Q4.56-2.22 8.99-1.85L8.99-1.85Q13.31-1.97 13.43-8.25L13.43-8.25Q13.55-14.41 8.87-14.41L8.87-14.41Q4.44-14.41 4.44-7.39ZM4.56 6.28L1.85 6.28L1.85-16.51L4.44-16.51L4.44-14.17L4.56-14.17Q4.56-14.17 4.68-14.29L4.68-14.29Q6.41-17.00 9.36-17.00L9.36-17.00Q15.89-16.63 16.26-8.75L16.26-8.75Q15.89 0 8.99 0.25L8.99 0.25Q6.16 0.25 4.68-1.72L4.68-1.72L4.56-1.72L4.56 6.28Z" transform="translate(-1.8480492813141687, 23.162217659137575)"/>
        </g>
      </g>
    </g>
  </g>
</svg>