<svg width="350" height="64" viewBox="0 0 350 64" fill="none" xmlns="http://www.w3.org/2000/svg">
<rect x="17.7656" width="4.06344" height="10.1586" rx="2.03172" fill="white"/>
<rect x="42.1484" width="4.06344" height="10.1586" rx="2.03172" fill="white"/>
<path fill-rule="evenodd" clip-rule="evenodd" d="M36.3868 33.7238C36.1745 35.3777 35.4885 36.8822 34.4646 38.0946C33.3898 39.3749 31.943 40.3309 30.2909 40.7995L30.2195 40.8199L30.0582 40.8623L30.0447 40.8657L17.25 44.2957V41.3208C17.25 41.2546 17.25 41.1884 17.2568 41.1221C17.3315 39.8775 18.1143 38.8213 19.2078 38.3544C19.3318 38.3 19.4591 38.2542 19.5916 38.2185L19.7121 38.1863L36.3851 33.7188V33.7238H36.3868Z" fill="white"/>
<path fill-rule="evenodd" clip-rule="evenodd" d="M46.7227 22.7568C46.288 26.1511 43.8479 28.9189 40.6268 29.8325L40.5555 29.8528L40.3958 29.8953H40.3941L40.3806 29.8987L17.25 36.0965V33.1215C17.25 31.7903 18.0566 30.6475 19.2078 30.1551L19.5916 30.0192L19.7104 29.987L46.721 22.75V22.7568H46.7227Z" fill="white"/>
<path d="M49.7607 3.04688C56.7738 3.04688 62.459 8.73208 62.459 15.7451V44.4863H58.3965V15.7451C58.3965 10.9763 54.5296 7.11035 49.7607 7.11035H14.2061C9.43718 7.11036 5.57129 10.9763 5.57129 15.7451V51.2998C5.57129 56.0687 9.43719 59.9346 14.2061 59.9346H42.7881V63.998H14.2061C7.19301 63.998 1.50781 58.3128 1.50781 51.2998V15.7451C1.50781 8.73209 7.19301 3.04688 14.2061 3.04688H49.7607Z" fill="white"/>
<path d="M62.4912 44.9619L43.4541 63.999H42.7891V50.0703C42.7891 46.8819 45.3741 44.2969 48.5625 44.2969H62.4912V44.9619Z" fill="white"/>
<path d="M88.2856 15.9012C88.8663 15.8431 89.3091 15.9229 89.614 16.1409C89.9188 16.3588 90.0712 16.7002 90.0712 17.1652C90.0712 18.066 89.5776 18.5601 88.5905 18.6472L87.3275 18.7344C85.6724 18.8506 84.4383 19.3519 83.6253 20.2382C82.8123 21.1244 82.3333 22.454 82.188 24.2266L82.101 25.4471H86.8483C87.3129 25.4471 87.6687 25.5706 87.9154 25.8175C88.1622 26.0645 88.2856 26.3915 88.2856 26.7983C88.2856 27.2342 88.1549 27.5828 87.8936 27.8444C87.6323 28.106 87.2549 28.2366 86.7613 28.2366H81.8832L80.533 45.1927C80.504 45.7447 80.3152 46.1662 79.9669 46.4568C79.6185 46.7473 79.1974 46.8927 78.7038 46.8927C78.2102 46.8927 77.7964 46.7473 77.4625 46.4568C77.1287 46.1662 76.9762 45.7447 77.0053 45.1927L78.3553 28.2366H75.4373C74.9727 28.2366 74.617 28.1131 74.3702 27.8662C74.1234 27.6192 74 27.2923 74 26.8855C74 26.4496 74.1307 26.1009 74.3919 25.8393C74.6533 25.5778 75.0452 25.4471 75.568 25.4471H78.5731L78.6167 24.6624C78.8199 21.8437 79.6475 19.7297 81.0992 18.3203C82.5511 16.9109 84.6561 16.1191 87.4146 15.9447L88.2856 15.9012Z" fill="white"/>
<path d="M92.5961 46.8892C92.1025 46.8892 91.696 46.7438 91.3767 46.4533C91.0573 46.1626 90.912 45.7268 90.9412 45.1455L93.1623 17.3361C93.1913 16.7838 93.3946 16.3699 93.7721 16.0938C94.1496 15.8176 94.5851 15.6797 95.0787 15.6797C95.5723 15.6797 95.9715 15.8176 96.2764 16.0938C96.5813 16.3699 96.7192 16.7838 96.6902 17.3361L94.4689 45.1455C94.4399 45.7268 94.244 46.1626 93.8809 46.4533C93.518 46.7438 93.0898 46.8892 92.5961 46.8892Z" fill="white"/>
<path d="M117.905 25.0078C118.427 25.0078 118.841 25.1604 119.146 25.4654C119.451 25.7705 119.574 26.1993 119.516 26.7513L118.035 45.2764C118.006 45.7704 117.81 46.1628 117.447 46.4534C117.084 46.7439 116.656 46.8893 116.163 46.8893C115.669 46.8893 115.277 46.7512 114.986 46.4752C114.696 46.1992 114.566 45.8141 114.595 45.3201L114.769 43.2278C114.043 44.4193 113.07 45.3418 111.851 45.9957C110.631 46.6495 109.267 46.9765 107.757 46.9765C105.405 46.9765 103.619 46.359 102.4 45.1239C101.18 43.889 100.57 42.08 100.57 39.6971C100.57 39.1741 100.585 38.7817 100.614 38.5203L101.528 26.7513C101.587 26.1993 101.797 25.7705 102.16 25.4654C102.523 25.1604 102.951 25.0078 103.445 25.0078C103.967 25.0078 104.381 25.1604 104.686 25.4654C104.991 25.7705 105.114 26.1993 105.056 26.7513L104.142 38.3023C104.113 38.5057 104.098 38.8108 104.098 39.2176C104.098 42.4142 105.623 44.0125 108.671 44.0125C110.559 44.0125 112.068 43.4312 113.201 42.2689C114.333 41.1065 114.972 39.4938 115.117 37.4306L115.988 26.7513C116.046 26.1993 116.257 25.7705 116.62 25.4654C116.983 25.1604 117.411 25.0078 117.905 25.0078Z" fill="white"/>
<path d="M127.176 36.6035V36.778C127.176 39.1026 127.75 40.9042 128.897 42.1828C130.044 43.4614 131.706 44.1008 133.884 44.1008C136.177 44.1008 138.195 43.4614 139.938 42.1828C140.228 41.9795 140.518 41.8777 140.809 41.8777C141.157 41.8777 141.44 42.0085 141.658 42.2701C141.876 42.5316 141.985 42.8367 141.985 43.1854C141.985 43.7086 141.752 44.1879 141.288 44.6238C140.504 45.3213 139.408 45.888 137.999 46.3239C136.591 46.7597 135.161 46.9777 133.709 46.9777C130.632 46.9777 128.185 46.0478 126.371 44.1879C124.556 42.3282 123.648 39.8291 123.648 36.6907C123.648 34.366 124.077 32.3174 124.933 30.5447C125.79 28.7721 127.009 27.3918 128.592 26.4038C130.174 25.4159 132.011 24.9219 134.101 24.9219C136.947 24.9219 139.125 25.7717 140.634 27.4718C142.144 29.1716 142.899 31.6345 142.899 34.86C142.899 35.4121 142.754 35.8408 142.464 36.1459C142.173 36.451 141.781 36.6035 141.288 36.6035H127.176ZM134.232 27.668C132.287 27.668 130.733 28.2418 129.572 29.3896C128.41 30.5375 127.67 32.1866 127.351 34.337H139.72C139.807 32.1576 139.364 30.5012 138.391 29.3678C137.419 28.2345 136.032 27.668 134.232 27.668Z" fill="white"/>
<path d="M159.106 24.9219C161.487 24.9219 163.302 25.5466 164.55 26.7962C165.799 28.0457 166.423 29.8618 166.423 32.2447C166.423 32.7677 166.409 33.1601 166.38 33.4216L165.465 45.1469C165.407 45.7281 165.204 46.164 164.855 46.4547C164.507 46.7451 164.086 46.8905 163.592 46.8905C163.04 46.8905 162.612 46.7451 162.307 46.4547C162.002 46.164 161.879 45.7281 161.937 45.1469L162.852 33.6395C162.881 33.4362 162.895 33.1311 162.895 32.7242C162.895 29.4986 161.342 27.8859 158.235 27.8859C156.261 27.8859 154.693 28.4743 153.531 29.6512C152.37 30.828 151.702 32.4481 151.528 34.5113L150.657 45.1469C150.628 45.7281 150.439 46.164 150.09 46.4547C149.742 46.7451 149.306 46.8905 148.784 46.8905C148.261 46.8905 147.847 46.7451 147.543 46.4547C147.238 46.164 147.1 45.7281 147.129 45.1469L148.653 26.6654C148.682 26.1424 148.878 25.7355 149.241 25.4449C149.604 25.1543 150.032 25.009 150.526 25.009C151.02 25.009 151.412 25.1543 151.702 25.4449C151.992 25.7355 152.123 26.1278 152.094 26.6218L151.92 28.714C152.646 27.5226 153.633 26.5927 154.881 25.9244C156.13 25.256 157.538 24.9219 159.106 24.9219Z" fill="white"/>
<path d="M177.09 39.0018C177.061 39.2053 177.047 39.4959 177.047 39.8736C177.047 41.2685 177.366 42.3292 178.005 43.0555C178.644 43.782 179.544 44.1454 180.705 44.1454C181.083 44.1454 181.446 44.1235 181.794 44.08C182.142 44.0363 182.404 44.0146 182.578 44.0146C182.868 44.0146 183.108 44.1308 183.297 44.3633C183.485 44.5957 183.58 44.9154 183.58 45.3222C183.58 45.9324 183.326 46.3611 182.818 46.6081C182.31 46.8551 181.417 46.9786 180.139 46.9786C178.048 46.9786 176.423 46.3829 175.261 45.1914C174.1 44 173.519 42.3146 173.519 40.1351C173.519 39.7283 173.533 39.4086 173.562 39.1762L174.39 28.2354H171.515C171.051 28.2354 170.695 28.1119 170.448 27.8649C170.202 27.6179 170.078 27.2911 170.078 26.8843C170.078 26.4193 170.216 26.0633 170.492 25.8163C170.768 25.5693 171.153 25.4458 171.646 25.4458H174.608L175 20.4767C175.058 19.9827 175.254 19.5832 175.588 19.2781C175.922 18.9729 176.35 18.8203 176.872 18.8203C177.424 18.8203 177.853 18.9802 178.157 19.2998C178.462 19.6195 178.586 20.0408 178.528 20.5638L178.136 25.4458H182.926C183.362 25.4458 183.71 25.5693 183.972 25.8163C184.233 26.0633 184.364 26.3903 184.364 26.7971C184.364 27.262 184.233 27.6179 183.972 27.8649C183.71 28.1119 183.333 28.2354 182.839 28.2354H177.918L177.09 39.0018Z" fill="white"/>
<path d="M345.281 25.0236H349.933V45.9571C349.933 49.2924 348.836 51.8524 346.642 53.6371C344.447 55.4218 341.785 56.3142 338.655 56.3142C333.593 56.3142 330.126 54.5441 328.254 51.004L332.335 48.6342C333.476 50.887 335.612 52.0134 338.742 52.0134C340.79 52.0134 342.385 51.4721 343.526 50.3896C344.696 49.3363 345.281 47.8588 345.281 45.9571V43.2801C343.497 45.8255 340.951 47.0982 337.645 47.0982C334.544 47.0982 331.925 46.001 329.79 43.8067C327.654 41.5832 326.586 38.9062 326.586 35.7756C326.586 32.6451 327.654 29.9827 329.79 27.7884C331.925 25.5649 334.544 24.4531 337.645 24.4531C340.951 24.4531 343.497 25.7258 345.281 28.2712V25.0236ZM333.3 40.6908C334.646 42.0074 336.314 42.6657 338.303 42.6657C340.293 42.6657 341.946 42.0074 343.263 40.6908C344.608 39.3743 345.281 37.7359 345.281 35.7756C345.281 33.8154 344.608 32.177 343.263 30.8604C341.946 29.5439 340.293 28.8856 338.303 28.8856C336.314 28.8856 334.646 29.5439 333.3 30.8604C331.984 32.177 331.326 33.8154 331.326 35.7756C331.326 37.7359 331.984 39.3743 333.3 40.6908Z" fill="white"/>
<path d="M314.284 24.4531C316.8 24.4531 318.834 25.2577 320.384 26.8668C321.935 28.476 322.71 30.6849 322.71 33.4936V46.9665H317.971V33.9763C317.971 32.3379 317.532 31.0799 316.654 30.2022C315.776 29.3244 314.577 28.8856 313.055 28.8856C311.388 28.8856 310.042 29.4122 309.018 30.4655C307.994 31.4895 307.482 33.0694 307.482 35.2051V46.9665H302.742V25.0236H307.482V27.8323C308.915 25.5795 311.183 24.4531 314.284 24.4531Z" fill="white"/>
<path d="M296.978 20.8582C296.393 21.4433 295.691 21.7359 294.872 21.7359C294.053 21.7359 293.336 21.4433 292.721 20.8582C292.136 20.2438 291.844 19.527 291.844 18.7078C291.844 17.8886 292.136 17.1864 292.721 16.6013C293.307 15.9869 294.023 15.6797 294.872 15.6797C295.72 15.6797 296.437 15.9869 297.022 16.6013C297.607 17.1864 297.9 17.8886 297.9 18.7078C297.9 19.527 297.593 20.2438 296.978 20.8582ZM292.502 46.9702V25.0273H297.242V46.9702H292.502Z" fill="white"/>
<path d="M289.312 46.97H283.65L274.654 36.8324V46.97H269.914V16.25H274.654V34.7259L283.168 25.0271H288.96L279.306 35.7791L289.312 46.97Z" fill="white"/>
<path d="M254.047 47.537C250.828 47.537 248.093 46.4252 245.84 44.2017C243.587 41.9782 242.461 39.2426 242.461 35.9951C242.461 32.7475 243.587 30.012 245.84 27.7884C248.093 25.5649 250.828 24.4531 254.047 24.4531C257.294 24.4531 260.03 25.5649 262.253 27.7884C264.506 30.012 265.633 32.7475 265.633 35.9951C265.633 39.2426 264.506 41.9782 262.253 44.2017C260.03 46.4252 257.294 47.537 254.047 47.537ZM249.175 40.9542C250.492 42.2707 252.116 42.929 254.047 42.929C255.978 42.929 257.602 42.2707 258.918 40.9542C260.235 39.6376 260.893 37.9846 260.893 35.9951C260.893 34.0056 260.235 32.3526 258.918 31.036C257.602 29.7194 255.978 29.0611 254.047 29.0611C252.116 29.0611 250.492 29.7194 249.175 31.036C247.859 32.3526 247.201 34.0056 247.201 35.9951C247.201 37.9846 247.859 39.6376 249.175 40.9542Z" fill="white"/>
<path d="M227.812 47.537C224.594 47.537 221.859 46.4252 219.606 44.2017C217.353 41.9782 216.227 39.2426 216.227 35.9951C216.227 32.7475 217.353 30.012 219.606 27.7884C221.859 25.5649 224.594 24.4531 227.812 24.4531C231.06 24.4531 233.795 25.5649 236.019 27.7884C238.272 30.012 239.398 32.7475 239.398 35.9951C239.398 39.2426 238.272 41.9782 236.019 44.2017C233.795 46.4252 231.06 47.537 227.812 47.537ZM222.941 40.9542C224.258 42.2707 225.881 42.929 227.812 42.929C229.743 42.929 231.367 42.2707 232.684 40.9542C234 39.6376 234.659 37.9846 234.659 35.9951C234.659 34.0056 234 32.3526 232.684 31.036C231.367 29.7194 229.743 29.0611 227.812 29.0611C225.881 29.0611 224.258 29.7194 222.941 31.036C221.625 32.3526 220.966 34.0056 220.966 35.9951C220.966 37.9846 221.625 39.6376 222.941 40.9542Z" fill="white"/>
<path d="M208.847 31.0395C210.192 31.7417 211.246 32.7071 212.006 33.9359C212.767 35.1647 213.147 36.5837 213.147 38.1929C213.147 40.709 212.255 42.8009 210.47 44.4685C208.686 46.1362 206.506 46.97 203.931 46.97H190.766V16.25H202.966C205.482 16.25 207.603 17.0692 209.329 18.7076C211.085 20.3167 211.962 22.3355 211.962 24.7638C211.962 27.4262 210.924 29.5181 208.847 31.0395ZM202.966 20.9897H195.812V29.0646H202.966C204.078 29.0646 205.014 28.6843 205.775 27.9236C206.535 27.1337 206.916 26.1682 206.916 25.0271C206.916 23.8861 206.535 22.9353 205.775 22.1746C205.014 21.3846 204.078 20.9897 202.966 20.9897ZM203.931 42.2303C205.102 42.2303 206.082 41.8207 206.872 41.0015C207.691 40.1531 208.1 39.1291 208.1 37.9295C208.1 36.73 207.691 35.7206 206.872 34.9014C206.082 34.053 205.102 33.6287 203.931 33.6287H195.812V42.2303H203.931Z" fill="white"/>
</svg>
