<svg width="48" height="48" viewBox="0 0 48 48" fill="none" xmlns="http://www.w3.org/2000/svg">
<path d="M0 8C0 3.58172 3.58172 0 8 0H40C44.4183 0 48 3.58172 48 8V40C48 44.4183 44.4183 48 40 48H8C3.58172 48 0 44.4183 0 40V8Z" fill="#F5F5F5"/>
<path d="M29.1562 33.375C28.2418 33.3749 27.3503 33.0891 26.6063 32.5575L21.1875 28.6875V35.25C21.1875 35.7473 21.385 36.2242 21.7367 36.5758C22.0883 36.9275 22.5652 37.125 23.0625 37.125H35.25C35.7473 37.125 36.2242 36.9275 36.5758 36.5758C36.9275 36.2242 37.125 35.7473 37.125 35.25V28.6875L31.7062 32.5575C30.9622 33.0891 30.0707 33.3749 29.1562 33.375Z" fill="#3A4FF2"/>
<path d="M29.1562 32.4375C30.0707 32.4374 30.9622 32.1516 31.7062 31.62L37.125 27.75C37.125 27.5014 37.0262 27.2629 36.8504 27.0871C36.6746 26.9113 36.4361 26.8125 36.1875 26.8125H22.125C21.8764 26.8125 21.6379 26.9113 21.4621 27.0871C21.2863 27.2629 21.1875 27.5014 21.1875 27.75L26.6063 31.62C27.3503 32.1516 28.2418 32.4374 29.1562 32.4375Z" fill="#3A4FF2"/>
<path d="M20.25 27.75C20.25 27.2527 20.4475 26.7758 20.7992 26.4242C21.1508 26.0725 21.6277 25.875 22.125 25.875H36.1875C36.4361 25.875 36.6746 25.7762 36.8504 25.6004C37.0262 25.4246 37.125 25.1861 37.125 24.9375V22.125C37.125 21.916 37.0552 21.713 36.9266 21.5482C36.798 21.3835 36.618 21.2664 36.4153 21.2156L34.7784 20.8059C34.5556 20.0538 34.254 19.3272 33.8784 18.6384L34.7475 17.19C34.855 17.0108 34.8995 16.8009 34.874 16.5935C34.8486 16.3861 34.7545 16.1932 34.6069 16.0453L31.9547 13.3941C31.8068 13.2464 31.6139 13.1524 31.4065 13.1269C31.1991 13.1014 30.9892 13.146 30.81 13.2534L29.3625 14.1216C28.6706 13.7456 27.9459 13.4447 27.1931 13.2216L26.7844 11.5847C26.7336 11.382 26.6165 11.202 26.4518 11.0734C26.287 10.9448 26.084 10.875 25.875 10.875H22.125C21.916 10.875 21.713 10.9448 21.5482 11.0734C21.3835 11.202 21.2664 11.382 21.2156 11.5847L20.8069 13.2216C20.055 13.4447 19.3294 13.7456 18.6375 14.1216L17.19 13.2525C17.0108 13.145 16.8009 13.1005 16.5935 13.126C16.3861 13.1514 16.1932 13.2455 16.0453 13.3931L13.3941 16.0462C13.2464 16.1941 13.1524 16.387 13.1269 16.5944C13.1014 16.8018 13.146 17.0118 13.2534 17.1909L14.1216 18.6394C13.7456 19.3303 13.4437 20.055 13.2216 20.8069L11.5856 21.2166C11.3829 21.2671 11.2028 21.384 11.0741 21.5486C10.9453 21.7132 10.8753 21.916 10.875 22.125V25.875C10.8751 26.0841 10.945 26.2872 11.0738 26.452C11.2026 26.6168 11.3827 26.7338 11.5856 26.7844L13.2216 27.1941C13.4437 27.945 13.7456 28.6706 14.1216 29.3616L13.2525 30.81C13.145 30.9892 13.1005 31.1991 13.126 31.4065C13.1514 31.6139 13.2455 31.8068 13.3931 31.9547L16.0453 34.6059C16.1932 34.7536 16.3861 34.8476 16.5935 34.8731C16.8009 34.8986 17.0108 34.854 17.19 34.7466L18.6375 33.8784C19.155 34.1597 19.6969 34.3847 20.25 34.5816V27.75ZM18.5119 24.1369C18.5555 24.0933 18.6072 24.0587 18.6641 24.0351C18.7211 24.0115 18.7821 23.9994 18.8438 23.9994C18.9054 23.9994 18.9664 24.0115 19.0234 24.0351C19.0803 24.0587 19.132 24.0933 19.1756 24.1369C19.2192 24.1805 19.2538 24.2322 19.2774 24.2891C19.301 24.3461 19.3131 24.4071 19.3131 24.4688C19.3131 24.5304 19.301 24.5914 19.2774 24.6484C19.2538 24.7053 19.2192 24.757 19.1756 24.8006L17.3006 26.6756C17.2572 26.7195 17.2055 26.7543 17.1486 26.7781C17.0916 26.8019 17.0305 26.8141 16.9688 26.8141C16.907 26.8141 16.8459 26.8019 16.7889 26.7781C16.732 26.7543 16.6803 26.7195 16.6369 26.6756L14.7619 24.8006C14.7183 24.757 14.6837 24.7053 14.6601 24.6484C14.6365 24.5914 14.6244 24.5304 14.6244 24.4688C14.6244 24.4071 14.6365 24.3461 14.6601 24.2891C14.6837 24.2322 14.7183 24.1805 14.7619 24.1369C14.8055 24.0933 14.8572 24.0587 14.9141 24.0351C14.9711 24.0115 15.0321 23.9994 15.0938 23.9994C15.1554 23.9994 15.2164 24.0115 15.2734 24.0351C15.3303 24.0587 15.382 24.0933 15.4256 24.1369L16.5 25.2122V24C16.5 19.8647 19.8647 16.5 24 16.5C28.1353 16.5 31.5 19.8647 31.5 24V24.4688C31.5 24.5931 31.4506 24.7123 31.3627 24.8002C31.2748 24.8881 31.1556 24.9375 31.0312 24.9375C30.9069 24.9375 30.7877 24.8881 30.6998 24.8002C30.6119 24.7123 30.5625 24.5931 30.5625 24.4688V24C30.5625 20.3813 27.6187 17.4375 24 17.4375C20.3813 17.4375 17.4375 20.3813 17.4375 24V25.2122L18.5119 24.1369Z" fill="#3A4FF2"/>
</svg>
