<svg width="48" height="48" viewBox="0 0 48 48" fill="none" xmlns="http://www.w3.org/2000/svg">
<path d="M0 8C0 3.58172 3.58172 0 8 0H40C44.4183 0 48 3.58172 48 8V40C48 44.4183 44.4183 48 40 48H8C3.58172 48 0 44.4183 0 40V8Z" fill="#F5F5F5"/>
<g clip-path="url(#clip0_13024_2633)">
<path d="M38.4375 23.9987C38.4375 31.9697 31.9761 38.4311 24.0052 38.4311C16.0342 38.4311 9.57312 31.9697 9.57312 23.9987C9.57312 16.0278 16.0342 9.56641 24.0052 9.56641C31.9761 9.56641 38.4375 16.0281 38.4375 23.9987Z" fill="#E0623D"/>
<path d="M27.199 18.7859C26.377 18.7863 25.5627 18.945 24.8008 19.2534L24.909 18.6673C24.909 18.6673 25.6378 15.5181 22.6503 15.3281C22.412 15.3294 22.3378 15.452 22.3065 15.6173L21.7217 18.7892C20.9288 18.7991 20.1447 18.9562 19.4092 19.2525L19.5172 18.6664C19.5172 18.6664 20.2459 15.5181 17.2587 15.3281C17.0215 15.3291 16.9462 15.4506 16.9159 15.6144L15.3168 24.2863C15.2422 24.6791 15.2018 25.0777 15.1962 25.4775C15.1501 29.167 18.04 32.1688 21.6395 32.1688C25.239 32.1688 28.2045 29.167 28.2509 25.4775C28.2633 24.4822 28.0214 23.8098 27.5923 23.4175C27.0159 22.8909 26.005 22.9956 25.519 23.6464C25.0697 24.2478 25.1379 25.1684 25.1339 25.4775C25.1242 26.25 24.8641 26.9985 24.3928 27.6106C23.9355 26.9944 23.6939 26.2448 23.7053 25.4775C23.7293 23.5495 25.279 21.9812 27.1592 21.9812C29.0393 21.9812 30.5498 23.5495 30.5264 25.4775C30.5196 26.0717 30.3646 26.6548 30.0754 27.1738C29.7862 27.6929 29.3719 28.1315 28.8701 28.4498C28.8026 28.4923 28.6275 28.5972 28.4895 28.748C28.3712 28.8775 28.2864 29.053 28.2489 29.123C27.6745 30.1824 26.8622 31.0943 25.8759 31.7869C25.8201 31.8258 25.7209 31.9012 25.752 31.9781C25.7808 32.0489 25.9404 32.0747 26.0103 32.0859C26.3479 32.1416 26.6895 32.1696 27.0317 32.1695C30.6306 32.1695 33.5965 29.1678 33.6425 25.4783C33.6884 21.7887 30.7986 18.7859 27.199 18.7859ZM18.3125 25.4775C18.3336 23.7756 19.5443 22.3559 21.1212 22.0459L20.7086 24.2863C20.6341 24.6791 20.5938 25.0777 20.5881 25.4775C20.5725 26.7545 20.9087 27.9483 21.5042 28.9642C19.7065 28.8695 18.2895 27.3438 18.3125 25.4775Z" fill="white"/>
</g>
<defs>
<clipPath id="clip0_13024_2633">
<rect width="30" height="30" fill="white" transform="translate(9 9)"/>
</clipPath>
</defs>
</svg>
