<svg width="48" height="48" viewBox="0 0 48 48" fill="none" xmlns="http://www.w3.org/2000/svg">
<path d="M0 8C0 3.58172 3.58172 0 8 0H40C44.4183 0 48 3.58172 48 8V40C48 44.4183 44.4183 48 40 48H8C3.58172 48 0 44.4183 0 40V8Z" fill="#F5F5F5"/>
<path d="M21.6249 13.3125V34.6875C21.6249 36.6549 20.0301 38.25 18.0624 38.25H13.3125C11.3451 38.25 9.75 36.6549 9.75 34.6875V13.3125C9.75 11.3451 11.3451 9.75 13.3125 9.75H18.0624C20.0301 9.75 21.6249 11.3451 21.6249 13.3125ZM34.6875 28.3935H27.5625C25.5951 28.3938 24 29.9889 24 31.9566V34.6878C24 36.6549 25.5951 38.25 27.5625 38.25H34.6875C36.6549 38.25 38.25 36.6549 38.25 34.6875V31.9563C38.25 29.9886 36.6549 28.3935 34.6875 28.3935ZM34.6875 9.75H27.5625C25.5951 9.75 24 11.3451 24 13.3125V22.4565C24 24.4239 25.5951 26.0187 27.5625 26.0187H34.6875C36.6549 26.0187 38.25 24.4239 38.25 22.4562V13.3125C38.25 11.3451 36.6549 9.75 34.6875 9.75Z" fill="#FC8327"/>
<path d="M21.6249 13.3125V34.6875C21.6249 36.6549 20.0301 38.25 18.0624 38.25H13.3125C11.3451 38.25 9.75 36.6549 9.75 34.6875V13.3125C9.75 11.3451 11.3451 9.75 13.3125 9.75H18.0624C20.0301 9.75 21.6249 11.3451 21.6249 13.3125ZM34.6875 9.75H27.5625C25.5951 9.75 24 11.3451 24 13.3125V22.4565C24 24.4239 25.5951 26.0187 27.5625 26.0187H34.6875C36.6549 26.0187 38.25 24.4239 38.25 22.4562V13.3125C38.25 11.3451 36.6549 9.75 34.6875 9.75Z" fill="#6B2EE5"/>
</svg>
