<svg width="48" height="48" viewBox="0 0 48 48" fill="none" xmlns="http://www.w3.org/2000/svg">
<path d="M0 8C0 3.58172 3.58172 0 8 0H40C44.4183 0 48 3.58172 48 8V40C48 44.4183 44.4183 48 40 48H8C3.58172 48 0 44.4183 0 40V8Z" fill="#F5F5F5"/>
<g clip-path="url(#clip0_13024_2646)">
<path d="M28.5255 23.341C28.5048 28.4848 26.3037 33.7952 21.7562 36.2109C18.5584 37.9186 11 39.2305 11 33.6702C11 33.6702 11 12.991 11 12.9702C11 9.8881 13.5956 8.86768 16.1912 9.01346C20.0535 9.22171 23.7496 11.0335 25.9922 14.3655C27.425 16.4896 28.214 19.0511 28.4632 21.6334C28.484 22.2165 28.5255 22.7788 28.5255 23.341Z" fill="url(#paint0_linear_13024_2646)"/>
<path d="M35.6884 21.5294C35.2523 17.2811 32.6567 13.7201 29.0644 11.5751C26.6765 10.1382 23.6863 9.78414 22.129 12.658C22.129 12.6788 11.6427 32.0044 11.6427 32.0044C10.7291 33.6912 10.9367 35.0865 11.7673 36.2319C13.0132 37.9396 15.4842 38.7101 17.4984 38.9183C19.3672 39.1266 21.2568 38.9183 23.0634 38.5018C28.5245 37.2523 33.3627 33.5247 35.0031 28.1101C35.6468 25.986 35.9168 23.7577 35.6884 21.5294Z" fill="url(#paint1_linear_13024_2646)"/>
<path d="M21.7551 36.2323C26.3026 33.7958 28.5037 28.4854 28.5245 23.3624C28.5245 22.8001 28.5037 22.2378 28.4414 21.6756C28.213 19.0933 27.4032 16.5318 25.9704 14.4077C25.1813 13.2206 24.2054 12.2419 23.1049 11.4297C22.7519 11.7421 22.4197 12.1586 22.1497 12.6792C22.1497 12.7 11.6635 32.0256 11.6635 32.0256C10.9782 33.2751 10.9367 34.3788 11.2897 35.3368C11.2897 35.3576 11.3105 35.3784 11.3105 35.3993C11.3312 35.4409 11.352 35.5034 11.3728 35.545C11.3935 35.5867 11.3935 35.6075 11.4143 35.6491C11.4143 35.67 11.4351 35.6908 11.4351 35.6908C13.0755 38.8562 19.0142 37.69 21.7551 36.2323Z" fill="#E23B7B"/>
</g>
<defs>
<linearGradient id="paint0_linear_13024_2646" x1="19.7184" y1="17.4938" x2="19.7184" y2="26.4873" gradientUnits="userSpaceOnUse">
<stop stop-color="#7047EB"/>
<stop offset="1" stop-color="#A244FF"/>
</linearGradient>
<linearGradient id="paint1_linear_13024_2646" x1="31.9252" y1="13.6144" x2="19.5185" y2="37.5829" gradientUnits="userSpaceOnUse">
<stop stop-color="#FF9B53"/>
<stop offset="1" stop-color="#FF698F"/>
</linearGradient>
<clipPath id="clip0_13024_2646">
<rect width="25" height="30" fill="white" transform="translate(11 9)"/>
</clipPath>
</defs>
</svg>
