<svg width="48" height="48" viewBox="0 0 48 48" fill="none" xmlns="http://www.w3.org/2000/svg">
<path d="M0 8C0 3.58172 3.58172 0 8 0H40C44.4183 0 48 3.58172 48 8V40C48 44.4183 44.4183 48 40 48H8C3.58172 48 0 44.4183 0 40V8Z" fill="#F5F5F5"/>
<path d="M20.5924 14.8236L21.455 17.2129C21.9284 18.5228 22.6856 19.7124 23.6727 20.6969C24.6598 21.6814 25.8526 22.4366 27.1659 22.9087L29.5615 23.7691C29.6088 23.7864 29.6497 23.8178 29.6785 23.859C29.7074 23.9002 29.7228 23.9492 29.7228 23.9995C29.7228 24.0497 29.7074 24.0988 29.6785 24.14C29.6497 24.1812 29.6088 24.2125 29.5615 24.2298L27.1659 25.0902C25.8526 25.5623 24.6598 26.3175 23.6727 27.302C22.6856 28.2866 21.9284 29.4761 21.455 30.786L20.5924 33.1753C20.575 33.2225 20.5436 33.2632 20.5023 33.292C20.461 33.3208 20.4118 33.3362 20.3614 33.3362C20.311 33.3362 20.2619 33.3208 20.2206 33.292C20.1792 33.2632 20.1478 33.2225 20.1304 33.1753L19.2678 30.786C18.7945 29.4761 18.0372 28.2866 17.0501 27.302C16.063 26.3175 14.8703 25.5623 13.5569 25.0902L11.1613 24.2298C11.114 24.2125 11.0732 24.1812 11.0443 24.14C11.0155 24.0988 11 24.0497 11 23.9995C11 23.9492 11.0155 23.9002 11.0443 23.859C11.0732 23.8178 11.114 23.7864 11.1613 23.7691L13.5569 22.9087C14.8703 22.4366 16.063 21.6814 17.0501 20.6969C18.0372 19.7124 18.7945 18.5228 19.2678 17.2129L20.1304 14.8236C20.1473 14.776 20.1786 14.7347 20.22 14.7055C20.2613 14.6763 20.3107 14.6606 20.3614 14.6606C20.4121 14.6606 20.4615 14.6763 20.5029 14.7055C20.5442 14.7347 20.5755 14.776 20.5924 14.8236ZM31.376 9.08177L31.8132 10.2914C32.0531 10.9546 32.4366 11.5569 32.9365 12.0554C33.4363 12.554 34.0402 12.9365 34.7052 13.1757L35.918 13.6118C35.942 13.6206 35.9628 13.6364 35.9775 13.6573C35.9921 13.6782 36 13.7031 36 13.7286C36 13.7541 35.9921 13.779 35.9775 13.7999C35.9628 13.8208 35.942 13.8367 35.918 13.8454L34.7052 14.2815C34.0402 14.5207 33.4363 14.9032 32.9365 15.4018C32.4366 15.9003 32.0531 16.5026 31.8132 17.1658L31.376 18.3755C31.3672 18.3994 31.3513 18.4201 31.3303 18.4348C31.3094 18.4494 31.2844 18.4572 31.2589 18.4572C31.2333 18.4572 31.2084 18.4494 31.1874 18.4348C31.1665 18.4201 31.1505 18.3994 31.1418 18.3755L30.7046 17.1658C30.4647 16.5026 30.0811 15.9003 29.5813 15.4018C29.0814 14.9032 28.4775 14.5207 27.8126 14.2815L26.5997 13.8454C26.5757 13.8367 26.555 13.8208 26.5403 13.7999C26.5256 13.779 26.5178 13.7541 26.5178 13.7286C26.5178 13.7031 26.5256 13.6782 26.5403 13.6573C26.555 13.6364 26.5757 13.6206 26.5997 13.6118L27.8126 13.1757C28.4775 12.9365 29.0814 12.554 29.5813 12.0554C30.0811 11.5569 30.4647 10.9546 30.7046 10.2914L31.1418 9.08177C31.1505 9.0578 31.1665 9.0371 31.1874 9.02247C31.2084 9.00785 31.2333 9 31.2589 9C31.2844 9 31.3094 9.00785 31.3303 9.02247C31.3513 9.0371 31.3672 9.0578 31.376 9.08177ZM31.376 29.6245L31.8132 30.8342C32.0531 31.4974 32.4366 32.0997 32.9365 32.5982C33.4363 33.0968 34.0402 33.4793 34.7052 33.7185L35.918 34.1546C35.942 34.1633 35.9628 34.1792 35.9775 34.2001C35.9921 34.221 36 34.2459 36 34.2714C36 34.2969 35.9921 34.3218 35.9775 34.3427C35.9628 34.3636 35.942 34.3794 35.918 34.3882L34.7052 34.8243C34.0402 35.0635 33.4363 35.446 32.9365 35.9446C32.4366 36.4431 32.0531 37.0454 31.8132 37.7086L31.376 38.9182C31.3672 38.9422 31.3513 38.9629 31.3303 38.9775C31.3094 38.9922 31.2844 39 31.2589 39C31.2333 39 31.2084 38.9922 31.1874 38.9775C31.1665 38.9629 31.1505 38.9422 31.1418 38.9182L30.7046 37.7086C30.4647 37.0454 30.0811 36.4431 29.5813 35.9446C29.0814 35.446 28.4775 35.0635 27.8126 34.8243L26.5997 34.3882C26.5757 34.3794 26.555 34.3636 26.5403 34.3427C26.5256 34.3218 26.5178 34.2969 26.5178 34.2714C26.5178 34.2459 26.5256 34.221 26.5403 34.2001C26.555 34.1792 26.5757 34.1633 26.5997 34.1546L27.8126 33.7185C28.4775 33.4793 29.0814 33.0968 29.5813 32.5982C30.0811 32.0997 30.4647 31.4974 30.7046 30.8342L31.1418 29.6245C31.1815 29.5153 31.3373 29.5153 31.376 29.6245Z" fill="#FF4D97"/>
<path d="M20.5924 14.8236L21.455 17.2129C21.9284 18.5228 22.6856 19.7124 23.6727 20.6969C24.6598 21.6814 25.8526 22.4366 27.1659 22.9087L29.5615 23.7691C29.6088 23.7864 29.6497 23.8178 29.6785 23.859C29.7074 23.9002 29.7228 23.9492 29.7228 23.9995C29.7228 24.0497 29.7074 24.0988 29.6785 24.14C29.6497 24.1812 29.6088 24.2125 29.5615 24.2298L27.1659 25.0902C25.8526 25.5623 24.6598 26.3175 23.6727 27.302C22.6856 28.2866 21.9284 29.4761 21.455 30.786L20.5924 33.1753C20.575 33.2225 20.5436 33.2632 20.5023 33.292C20.461 33.3208 20.4118 33.3362 20.3614 33.3362C20.311 33.3362 20.2619 33.3208 20.2206 33.292C20.1792 33.2632 20.1478 33.2225 20.1304 33.1753L19.2678 30.786C18.7945 29.4761 18.0372 28.2866 17.0501 27.302C16.063 26.3175 14.8703 25.5623 13.5569 25.0902L11.1613 24.2298C11.114 24.2125 11.0732 24.1812 11.0443 24.14C11.0155 24.0988 11 24.0497 11 23.9995C11 23.9492 11.0155 23.9002 11.0443 23.859C11.0732 23.8178 11.114 23.7864 11.1613 23.7691L13.5569 22.9087C14.8703 22.4366 16.063 21.6814 17.0501 20.6969C18.0372 19.7124 18.7945 18.5228 19.2678 17.2129L20.1304 14.8236C20.1473 14.776 20.1786 14.7347 20.22 14.7055C20.2613 14.6763 20.3107 14.6606 20.3614 14.6606C20.4121 14.6606 20.4615 14.6763 20.5029 14.7055C20.5442 14.7347 20.5755 14.776 20.5924 14.8236ZM31.376 29.6245L31.8132 30.8342C32.0531 31.4974 32.4366 32.0997 32.9365 32.5982C33.4363 33.0968 34.0402 33.4793 34.7052 33.7185L35.918 34.1546C35.942 34.1633 35.9628 34.1792 35.9775 34.2001C35.9921 34.221 36 34.2459 36 34.2714C36 34.2969 35.9921 34.3218 35.9775 34.3427C35.9628 34.3636 35.942 34.3794 35.918 34.3882L34.7052 34.8243C34.0402 35.0635 33.4363 35.446 32.9365 35.9446C32.4366 36.4431 32.0531 37.0454 31.8132 37.7086L31.376 38.9182C31.3672 38.9422 31.3513 38.9629 31.3303 38.9775C31.3094 38.9922 31.2844 39 31.2589 39C31.2333 39 31.2084 38.9922 31.1874 38.9775C31.1665 38.9629 31.1505 38.9422 31.1418 38.9182L30.7046 37.7086C30.4647 37.0454 30.0811 36.4431 29.5813 35.9446C29.0814 35.446 28.4775 35.0635 27.8126 34.8243L26.5997 34.3882C26.5757 34.3794 26.555 34.3636 26.5403 34.3427C26.5256 34.3218 26.5178 34.2969 26.5178 34.2714C26.5178 34.2459 26.5256 34.221 26.5403 34.2001C26.555 34.1792 26.5757 34.1633 26.5997 34.1546L27.8126 33.7185C28.4775 33.4793 29.0814 33.0968 29.5813 32.5982C30.0811 32.0997 30.4647 31.4974 30.7046 30.8342L31.1418 29.6245C31.1815 29.5153 31.3373 29.5153 31.376 29.6245Z" fill="#6B2EE5"/>
</svg>
