<svg width="48" height="48" viewBox="0 0 40 40" fill="none" xmlns="http://www.w3.org/2000/svg">
<rect width="40" height="40" rx="6" fill="#FAFAFA"/>
<path fill-rule="evenodd" clip-rule="evenodd" d="M33 20.5C33 23.8152 31.6831 26.9946 29.3389 29.3388C26.9947 31.683 23.8153 33 20.5002 33C17.185 33.0001 14.0056 31.6832 11.6613 29.339C9.31711 26.9949 8.00009 23.8155 8 20.5003C7.99991 17.1852 9.31677 14.0057 11.6609 11.6615C14.005 9.3172 17.1843 8.00013 20.4995 8C23.8147 7.99987 26.9941 9.31669 29.3384 11.6608C31.6827 14.0048 32.9998 17.1842 33 20.4994V20.5ZM20.5 11.2049C25.6019 11.2049 29.7481 15.3511 29.7481 20.453C29.7481 25.5549 25.6019 29.7011 20.5 29.7011C15.3981 29.7011 11.2519 25.5549 11.2519 20.453C11.2519 15.3511 15.3981 11.2049 20.5 11.2049ZM20.5 9.66351C14.5427 9.66351 9.71051 14.4957 9.71051 20.453C9.71051 26.4103 14.5427 31.2425 20.5 31.2425C26.4573 31.2425 31.2895 26.4103 31.2895 20.453C31.2895 14.4957 26.4573 9.66351 20.5 9.66351ZM24.1684 21.9482C24.022 22.4029 23.8062 22.8036 23.521 23.1427C23.2436 23.4741 22.8891 23.7438 22.4729 23.9288C22.049 24.1215 21.5558 24.3064 21.0009 24.3064H18.188V16.5997H21.0009C21.5481 16.5997 22.0413 16.7384 22.4575 16.9233C22.8737 17.1083 23.2205 17.3626 23.5056 17.694C23.7908 18.0254 24.0066 18.4262 24.1607 18.8809C24.5075 19.9136 24.3148 21.4858 24.1684 21.9482ZM24.5846 16.592C24.1453 16.1141 23.6058 15.7365 22.9816 15.4745C22.3573 15.2124 21.6329 15.0583 20.8314 15.0583H16.6466L16.6402 15.829L16.6466 25.0771V25.8478H20.8314C21.6483 25.8478 22.3804 25.632 23.0047 25.3623C23.6443 25.0848 24.1761 24.6995 24.6077 24.2139C25.0393 23.7361 25.363 23.1581 25.5787 22.5108C25.7945 21.8634 25.8947 21.2006 25.8947 20.453C25.8947 19.6901 25.7868 18.9348 25.571 18.2874C25.3475 17.6401 25.0161 17.0698 24.5846 16.592Z" fill="#8F42EC"/>
</svg>
