<svg width="48" height="48" viewBox="0 0 48 48" fill="none" xmlns="http://www.w3.org/2000/svg">
<path d="M0 8C0 3.58172 3.58172 0 8 0H40C44.4183 0 48 3.58172 48 8V40C48 44.4183 44.4183 48 40 48H8C3.58172 48 0 44.4183 0 40V8Z" fill="#F5F5F5"/>
<rect x="9" y="9" width="30" height="30" rx="4" fill="#5237C4"/>
<path fill-rule="evenodd" clip-rule="evenodd" d="M24 32.5556C24.823 32.5556 25.619 32.4393 26.3723 32.2223C26.1563 31.6971 26.037 31.1217 26.037 30.5185C26.037 28.0435 28.0435 26.037 30.5185 26.037C31.1217 26.037 31.6971 26.1562 32.2223 26.3723C32.4393 25.619 32.5556 24.8231 32.5556 24C32.5556 19.2749 28.7251 15.4444 24 15.4444C19.2749 15.4444 15.4444 19.2749 15.4444 24C15.4444 28.7251 19.2749 32.5556 24 32.5556ZM34.2412 28.0227C34.731 26.7767 35 25.4198 35 24C35 17.9249 30.0751 13 24 13C17.9249 13 13 17.9249 13 24C13 30.0751 17.9249 35 24 35C25.4198 35 26.7767 34.731 28.0227 34.2412C28.736 34.7204 29.5946 35 30.5185 35C32.9936 35 35 32.9936 35 30.5185C35 29.5946 34.7204 28.736 34.2412 28.0227ZM32.9375 30.5185C32.9375 31.8545 31.8545 32.9375 30.5185 32.9375C29.1826 32.9375 28.0995 31.8545 28.0995 30.5185C28.0995 29.1826 29.1826 28.0996 30.5185 28.0996C31.8545 28.0996 32.9375 29.1826 32.9375 30.5185Z" fill="white"/>
</svg>
