<svg width="40" height="40" viewBox="0 0 40 40" fill="none" xmlns="http://www.w3.org/2000/svg">
<rect width="40" height="40" rx="6" fill="#FAFAFA"/>
<path d="M33 20.5764C33 13.6306 27.4036 8 20.5 8C13.5964 8 8 13.6306 8 20.5764C8 26.8536 12.5711 32.0565 18.5469 33V24.2118H15.3731V20.5764H18.5469V17.8057C18.5469 14.6537 20.413 12.9127 23.2683 12.9127C24.6359 12.9127 26.0664 13.1583 26.0664 13.1583V16.2533H24.4902C22.9374 16.2533 22.4531 17.2227 22.4531 18.2173V20.5764H25.9199L25.3657 24.2118H22.4531V33C28.4289 32.0565 33 26.8536 33 20.5764Z" fill="#1877F2"/>
</svg>
