<svg width="48" height="48" viewBox="0 0 48 48" fill="none" xmlns="http://www.w3.org/2000/svg">
<path d="M0 8C0 3.58172 3.58172 0 8 0H40C44.4183 0 48 3.58172 48 8V40C48 44.4183 44.4183 48 40 48H8C3.58172 48 0 44.4183 0 40V8Z" fill="#F5F5F5"/>
<g clip-path="url(#clip0_13024_2652)">
<path d="M26.3634 24.0018L29.8725 28.0641L34.591 31.1181L35.4138 24.0268L34.591 17.0938L29.782 19.777L26.3634 24.0018Z" fill="#00832D"/>
<path d="M6 30.457V36.4984C6 37.8796 7.10456 38.9983 8.46829 38.9983H14.4333L15.6675 34.4318L14.4333 30.457L10.3401 29.207L6 30.457Z" fill="#0066DA"/>
<path d="M14.4333 9L6 17.5413L10.3401 18.7912L14.4333 17.5413L15.6469 13.6206L14.4333 9Z" fill="#E94235"/>
<path d="M14.4333 17.543H6V30.4591H14.4333V17.543Z" fill="#2684FC"/>
<path d="M39.9801 12.6179L34.591 17.0927V31.117L40.0048 35.6127C40.8153 36.2543 42 35.6689 42 34.6252V13.5845C42 12.5283 40.7885 11.9491 39.9801 12.6179ZM26.3634 24.0007V30.4587H14.4333V39H32.1228C33.4865 39 34.591 37.8813 34.591 36.5001V31.117L26.3634 24.0007Z" fill="#00AC47"/>
<path d="M32.1228 9H14.4333V17.5413H26.3634V23.9993L34.591 17.0955V11.4999C34.591 10.1187 33.4865 9 32.1228 9Z" fill="#FFBA00"/>
</g>
<defs>
<clipPath id="clip0_13024_2652">
<rect width="36" height="30" fill="white" transform="translate(6 9)"/>
</clipPath>
</defs>
</svg>
