<svg width="48" height="48" viewBox="0 0 48 48" fill="none" xmlns="http://www.w3.org/2000/svg">
<path d="M0 8C0 3.58172 3.58172 0 8 0H40C44.4183 0 48 3.58172 48 8V40C48 44.4183 44.4183 48 40 48H8C3.58172 48 0 44.4183 0 40V8Z" fill="#F5F5F5"/>
<path d="M26.4804 9.78222C25.462 9.46095 24.3709 9.28516 23.2434 9.28516C19.9519 9.28516 17.0059 10.7703 15.0359 13.1101L20.0974 17.3654L26.4804 9.78222Z" fill="#1A73E8"/>
<path d="M15.0359 13.1094C13.4132 15.0368 12.5242 17.4759 12.5264 19.9955C12.5264 22.008 12.9264 23.6446 13.5872 25.1055L20.0974 17.3647L15.0359 13.1094Z" fill="#EA4335"/>
<path d="M23.2434 15.9053C24.0247 15.906 24.7897 16.13 25.448 16.5509C26.1064 16.9718 26.6308 17.572 26.9594 18.2809C27.2881 18.9898 27.4073 19.7779 27.3031 20.5523C27.1989 21.3267 26.8756 22.0552 26.3712 22.652L32.7481 15.0688C31.4392 12.547 29.1826 10.648 26.4743 9.78906L20.1034 17.3723C20.4873 16.9125 20.9675 16.5429 21.5101 16.2894C22.0527 16.0359 22.6445 15.9048 23.2434 15.9053Z" fill="#4285F4"/>
<path d="M23.2435 24.0996C20.9824 24.0996 19.1457 22.2629 19.1457 20.0019C19.1431 19.0392 19.4825 18.1068 20.1035 17.3711L13.5872 25.1119C14.7025 27.579 16.5513 29.5612 18.4547 32.0586L26.3713 22.6508C25.9867 23.1053 25.5076 23.4703 24.9673 23.7206C24.4271 23.9708 23.8388 24.1001 23.2435 24.0996Z" fill="#FBBC04"/>
<path d="M26.2136 34.6219C29.79 29.033 33.9544 26.4931 33.9544 19.995C33.9544 18.2128 33.518 16.5337 32.7481 15.0547L18.4607 32.0578C19.0669 32.8519 19.6791 33.6944 20.2731 34.628C22.4432 37.9861 21.8431 39.9986 23.2434 39.9986C24.6436 39.9986 24.0435 37.9801 26.2136 34.6219Z" fill="#34A853"/>
</svg>
