<svg width="48" height="48" viewBox="0 0 48 48" fill="none" xmlns="http://www.w3.org/2000/svg">
<path d="M0 8C0 3.58172 3.58172 0 8 0H40C44.4183 0 48 3.58172 48 8V40C48 44.4183 44.4183 48 40 48H8C3.58172 48 0 44.4183 0 40V8Z" fill="#F5F5F5"/>
<path d="M37 38C37.0043 38.0002 37.0087 38.0002 37.013 38L24.892 28.8C24.6351 28.6058 24.3218 28.5008 23.9998 28.5008C23.6777 28.5008 23.3644 28.6058 23.1075 28.8L10.987 38C10.9913 38.0002 10.9957 38.0002 11 38H37ZM21.3785 28.855L10 20.0205V37.01C10.0007 37.1524 10.0326 37.2928 10.0935 37.4215L21.3785 28.855ZM38 20.0205L26.6215 28.855L37.9065 37.4215C37.9674 37.2928 37.9993 37.1524 38 37.01V20.0205ZM12.5 20.6955V17.669L10.4325 19.087L10.4305 19.0885L12.5 20.6955ZM37.5695 19.0885L35.5 17.669V20.6955L37.5695 19.0885ZM22.5025 28C22.9338 27.6744 23.4594 27.4983 23.9998 27.4983C24.5401 27.4983 25.0657 27.6744 25.497 28L25.797 28.2275L34.5 21.472V10.5C34.5 10.3674 34.4473 10.2402 34.3536 10.1464C34.2598 10.0527 34.1326 10 34 10H14C13.8674 10 13.7402 10.0527 13.6464 10.1464C13.5527 10.2402 13.5 10.3674 13.5 10.5V21.472L22.203 28.229L22.5025 28ZM29 15V12.5C29 12.3674 29.0527 12.2402 29.1464 12.1464C29.2402 12.0527 29.3674 12 29.5 12H30.75C31.2141 12 31.6593 12.1844 31.9874 12.5126C32.3156 12.8408 32.5 13.2859 32.5 13.75C32.5 14.2141 32.3156 14.6592 31.9874 14.9874C31.6593 15.3156 31.2141 15.5 30.75 15.5H30V17.5C30 17.6326 29.9473 17.7598 29.8536 17.8536C29.7598 17.9473 29.6326 18 29.5 18C29.3674 18 29.2402 17.9473 29.1464 17.8536C29.0527 17.7598 29 17.6326 29 17.5V15ZM24.912 12.008C25.0425 11.9847 25.1769 12.0142 25.2856 12.0899C25.3944 12.1657 25.4686 12.2815 25.492 12.412L26.25 16.659L27.008 12.412C27.0179 12.3459 27.041 12.2825 27.0759 12.2255C27.1108 12.1685 27.1567 12.119 27.211 12.0801C27.2653 12.0411 27.3269 12.0135 27.392 11.9987C27.4572 11.9839 27.5247 11.9824 27.5905 11.9942C27.6563 12.0059 27.719 12.0308 27.775 12.0672C27.8311 12.1036 27.8792 12.1509 27.9166 12.2063C27.9541 12.2617 27.98 12.324 27.993 12.3895C28.0059 12.4551 28.0056 12.5226 27.992 12.588L27.163 17.235C27.1247 17.4493 27.0122 17.6432 26.8453 17.7829C26.6784 17.9226 26.4677 17.9991 26.25 17.9991C26.0323 17.9991 25.8216 17.9226 25.6547 17.7829C25.4878 17.6432 25.3753 17.4493 25.337 17.235L24.508 12.588C24.4847 12.4575 24.5142 12.3231 24.5899 12.2144C24.6657 12.1056 24.7815 12.0314 24.912 12.008ZM21.75 12C22.1532 12.0008 22.5439 12.1405 22.8563 12.3954C23.1687 12.6504 23.3838 13.0051 23.4655 13.4C23.492 13.53 23.4658 13.6653 23.3926 13.7759C23.3194 13.8866 23.2053 13.9637 23.0753 13.9903C22.9452 14.0168 22.81 13.9906 22.6993 13.9174C22.5886 13.8442 22.5115 13.73 22.485 13.6C22.4566 13.461 22.3894 13.3328 22.2911 13.2305C22.1928 13.1281 22.0675 13.0558 21.9297 13.0218C21.7919 12.9878 21.6473 12.9937 21.5127 13.0386C21.3781 13.0835 21.259 13.1657 21.1693 13.2756C21.0795 13.3855 21.0228 13.5186 21.0056 13.6595C20.9885 13.8004 21.0117 13.9432 21.0725 14.0714C21.1333 14.1996 21.2293 14.308 21.3492 14.3838C21.4691 14.4597 21.6081 14.5 21.75 14.5C22.0811 14.5002 22.4053 14.5942 22.6851 14.7713C22.9649 14.9484 23.1886 15.2012 23.3305 15.5004C23.4723 15.7996 23.5263 16.1328 23.4863 16.4615C23.4463 16.7902 23.3139 17.1007 23.1044 17.3571C22.895 17.6135 22.6171 17.8053 22.303 17.9101C21.9889 18.0148 21.6516 18.0284 21.3301 17.9491C21.0086 17.8698 20.7163 17.701 20.4869 17.4622C20.2576 17.2234 20.1007 16.9244 20.0345 16.6C20.008 16.47 20.0342 16.3347 20.1074 16.2241C20.1806 16.1134 20.2947 16.0363 20.4248 16.0098C20.5548 15.9832 20.69 16.0094 20.8007 16.0826C20.9114 16.1558 20.9885 16.27 21.015 16.4C21.0434 16.539 21.1106 16.6672 21.2089 16.7695C21.3072 16.8719 21.4325 16.9442 21.5703 16.9782C21.7081 17.0122 21.8527 17.0063 21.9873 16.9614C22.1219 16.9165 22.241 16.8343 22.3307 16.7244C22.4205 16.6145 22.4772 16.4814 22.4944 16.3405C22.5115 16.1996 22.4883 16.0568 22.4275 15.9286C22.3667 15.8004 22.2707 15.692 22.1508 15.6162C22.0309 15.5403 21.8919 15.5 21.75 15.5C21.2859 15.5 20.8408 15.3156 20.5126 14.9874C20.1844 14.6592 20 14.2141 20 13.75C20 13.2859 20.1844 12.8408 20.5126 12.5126C20.8408 12.1844 21.2859 12 21.75 12ZM15.5 15V12.5C15.5 12.3674 15.5527 12.2402 15.6464 12.1464C15.7402 12.0527 15.8674 12 16 12H17.25C17.6069 11.9984 17.9557 12.1064 18.2492 12.3095C18.5427 12.5126 18.7667 12.8008 18.8911 13.1354C19.0154 13.4699 19.0341 13.8346 18.9444 14.18C18.8548 14.5255 18.6613 14.8351 18.39 15.067C18.5828 15.2526 18.7362 15.4751 18.841 15.7214C18.9458 15.9676 18.9999 16.2324 19 16.5V17.5C19 17.6326 18.9473 17.7598 18.8536 17.8536C18.7598 17.9473 18.6326 18 18.5 18C18.3674 18 18.2402 17.9473 18.1464 17.8536C18.0527 17.7598 18 17.6326 18 17.5V16.5C18 16.2348 17.8946 15.9804 17.7071 15.7929C17.5196 15.6054 17.2652 15.5 17 15.5H16.5V17.5C16.5 17.6326 16.4473 17.7598 16.3536 17.8536C16.2598 17.9473 16.1326 18 16 18C15.8674 18 15.7402 17.9473 15.6464 17.8536C15.5527 17.7598 15.5 17.6326 15.5 17.5V15ZM15.5 20C15.5 19.8674 15.5527 19.7402 15.6464 19.6464C15.7402 19.5527 15.8674 19.5 16 19.5H32C32.1326 19.5 32.2598 19.5527 32.3536 19.6464C32.4473 19.7402 32.5 19.8674 32.5 20C32.5 20.1326 32.4473 20.2598 32.3536 20.3536C32.2598 20.4473 32.1326 20.5 32 20.5H16C15.8674 20.5 15.7402 20.4473 15.6464 20.3536C15.5527 20.2598 15.5 20.1326 15.5 20ZM18.5 22.5C18.5 22.3674 18.5527 22.2402 18.6464 22.1464C18.7402 22.0527 18.8674 22 19 22H29C29.1326 22 29.2598 22.0527 29.3536 22.1464C29.4473 22.2402 29.5 22.3674 29.5 22.5C29.5 22.6326 29.4473 22.7598 29.3536 22.8536C29.2598 22.9473 29.1326 23 29 23H19C18.8674 23 18.7402 22.9473 18.6464 22.8536C18.5527 22.7598 18.5 22.6326 18.5 22.5Z" fill="#D94180"/>
<path d="M31.5 13.75C31.5 13.5511 31.421 13.3603 31.2803 13.2197C31.1397 13.079 30.9489 13 30.75 13H30V14.5H30.75C30.9489 14.5 31.1397 14.421 31.2803 14.2803C31.421 14.1397 31.5 13.9489 31.5 13.75ZM17.25 14.5C17.4489 14.5 17.6397 14.421 17.7803 14.2803C17.921 14.1397 18 13.9489 18 13.75C18 13.5511 17.921 13.3603 17.7803 13.2197C17.6397 13.079 17.4489 13 17.25 13H16.5V14.5H17.25Z" fill="#D94180"/>
</svg>
