<svg width="48" height="48" viewBox="0 0 48 48" fill="none" xmlns="http://www.w3.org/2000/svg">
<path d="M0 8C0 3.58172 3.58172 0 8 0H40C44.4183 0 48 3.58172 48 8V40C48 44.4183 44.4183 48 40 48H8C3.58172 48 0 44.4183 0 40V8Z" fill="#F5F5F5"/>
<g clip-path="url(#clip0_13024_2622)">
<path fill-rule="evenodd" clip-rule="evenodd" d="M9 24C9 15.7153 15.7153 9 24 9C32.2847 9 39 15.7153 39 24C39 32.2847 32.2847 39 24 39C15.7153 39 9 32.2847 9 24ZM24 31.5C25.9891 31.5 27.8968 30.7098 29.3033 29.3033C30.7098 27.8968 31.5 25.9891 31.5 24C31.5 22.0109 30.7098 20.1032 29.3033 18.6967C27.8968 17.2902 25.9891 16.5 24 16.5C22.0109 16.5 20.1032 17.2902 18.6967 18.6967C17.2902 20.1032 16.5 22.0109 16.5 24C16.5 25.9891 17.2902 27.8968 18.6967 29.3033C20.1032 30.7098 22.0109 31.5 24 31.5ZM23.0625 12.75C23.0625 12.5014 23.1613 12.2629 23.3371 12.0871C23.5129 11.9113 23.7514 11.8125 24 11.8125C24.2486 11.8125 24.4871 11.9113 24.6629 12.0871C24.8387 12.2629 24.9375 12.5014 24.9375 12.75C24.9375 12.9986 24.8387 13.2371 24.6629 13.4129C24.4871 13.5887 24.2486 13.6875 24 13.6875C23.7514 13.6875 23.5129 13.5887 23.3371 13.4129C23.1613 13.2371 23.0625 12.9986 23.0625 12.75ZM24 34.3125C23.7514 34.3125 23.5129 34.4113 23.3371 34.5871C23.1613 34.7629 23.0625 35.0014 23.0625 35.25C23.0625 35.4986 23.1613 35.7371 23.3371 35.9129C23.5129 36.0887 23.7514 36.1875 24 36.1875C24.2486 36.1875 24.4871 36.0887 24.6629 35.9129C24.8387 35.7371 24.9375 35.4986 24.9375 35.25C24.9375 35.0014 24.8387 34.7629 24.6629 34.5871C24.4871 34.4113 24.2486 34.3125 24 34.3125ZM35.25 23.0625C35.4986 23.0625 35.7371 23.1613 35.9129 23.3371C36.0887 23.5129 36.1875 23.7514 36.1875 24C36.1875 24.2486 36.0887 24.4871 35.9129 24.6629C35.7371 24.8387 35.4986 24.9375 35.25 24.9375C35.0014 24.9375 34.7629 24.8387 34.5871 24.6629C34.4113 24.4871 34.3125 24.2486 34.3125 24C34.3125 23.7514 34.4113 23.5129 34.5871 23.3371C34.7629 23.1613 35.0014 23.0625 35.25 23.0625ZM13.6875 24C13.6875 23.7514 13.5887 23.5129 13.4129 23.3371C13.2371 23.1613 12.9986 23.0625 12.75 23.0625C12.5014 23.0625 12.2629 23.1613 12.0871 23.3371C11.9113 23.5129 11.8125 23.7514 11.8125 24C11.8125 24.2486 11.9113 24.4871 12.0871 24.6629C12.2629 24.8387 12.5014 24.9375 12.75 24.9375C12.9986 24.9375 13.2371 24.8387 13.4129 24.6629C13.5887 24.4871 13.6875 24.2486 13.6875 24ZM31.2919 15.3825C31.3784 15.293 31.4818 15.2215 31.5962 15.1724C31.7106 15.1233 31.8336 15.0974 31.9581 15.0963C32.0825 15.0952 32.206 15.119 32.3212 15.1661C32.4364 15.2132 32.5411 15.2829 32.6291 15.3709C32.7171 15.4589 32.7868 15.5636 32.8339 15.6788C32.881 15.794 32.9048 15.9175 32.9037 16.0419C32.9026 16.1664 32.8767 16.2894 32.8276 16.4038C32.7785 16.5182 32.707 16.6216 32.6175 16.7081C32.4407 16.8789 32.2039 16.9734 31.9581 16.9713C31.7123 16.9691 31.4771 16.8705 31.3033 16.6967C31.1295 16.5229 31.0309 16.2877 31.0287 16.0419C31.0266 15.7961 31.1211 15.5593 31.2919 15.3825ZM16.7081 31.2919C16.5322 31.1161 16.2937 31.0174 16.045 31.0175C15.7963 31.0176 15.5578 31.1164 15.382 31.2923C15.2062 31.4683 15.1075 31.7068 15.1076 31.9555C15.1077 32.2042 15.2066 32.4426 15.3825 32.6184C15.5584 32.7942 15.797 32.8929 16.0456 32.8928C16.1688 32.8928 16.2907 32.8685 16.4045 32.8213C16.5182 32.7742 16.6216 32.7051 16.7086 32.618C16.7956 32.5309 16.8647 32.4275 16.9118 32.3137C16.9588 32.1999 16.983 32.078 16.983 31.9548C16.983 31.8317 16.9587 31.7098 16.9115 31.596C16.8643 31.4823 16.7952 31.3789 16.7081 31.2919ZM32.6175 31.2919C32.707 31.3784 32.7785 31.4818 32.8276 31.5962C32.8767 31.7106 32.9026 31.8336 32.9037 31.9581C32.9048 32.0825 32.881 32.206 32.8339 32.3212C32.7868 32.4364 32.7171 32.5411 32.6291 32.6291C32.5411 32.7171 32.4364 32.7868 32.3212 32.8339C32.206 32.881 32.0825 32.9048 31.9581 32.9037C31.8336 32.9026 31.7106 32.8767 31.5962 32.8276C31.4818 32.7785 31.3784 32.707 31.2919 32.6175C31.1211 32.4407 31.0266 32.2039 31.0287 31.9581C31.0309 31.7123 31.1295 31.4771 31.3033 31.3033C31.4771 31.1295 31.7123 31.0309 31.9581 31.0287C32.2039 31.0266 32.4407 31.1211 32.6175 31.2919ZM16.7081 16.7081C16.7977 16.6216 16.8691 16.5182 16.9182 16.4038C16.9674 16.2894 16.9932 16.1664 16.9943 16.0419C16.9954 15.9175 16.9717 15.794 16.9245 15.6788C16.8774 15.5636 16.8078 15.4589 16.7197 15.3709C16.6317 15.2829 16.527 15.2132 16.4118 15.1661C16.2966 15.119 16.1732 15.0952 16.0487 15.0963C15.9242 15.0974 15.8012 15.1233 15.6868 15.1724C15.5724 15.2215 15.469 15.293 15.3825 15.3825C15.2117 15.5593 15.1172 15.7961 15.1194 16.0419C15.1215 16.2877 15.2201 16.5229 15.3939 16.6967C15.5677 16.8705 15.8029 16.9691 16.0487 16.9713C16.2945 16.9734 16.5313 16.8789 16.7081 16.7081Z" fill="#1890FF"/>
</g>
<defs>
<clipPath id="clip0_13024_2622">
<rect width="30" height="30" fill="white" transform="translate(9 9)"/>
</clipPath>
</defs>
</svg>
