<svg width="48" height="48" viewBox="0 0 48 48" fill="none" xmlns="http://www.w3.org/2000/svg">
<path d="M0 8C0 3.58172 3.58172 0 8 0H40C44.4183 0 48 3.58172 48 8V40C48 44.4183 44.4183 48 40 48H8C3.58172 48 0 44.4183 0 40V8Z" fill="#F5F5F5"/>
<g clip-path="url(#clip0_13024_2618)">
<path fill-rule="evenodd" clip-rule="evenodd" d="M23.9618 38.9236C32.225 38.9236 38.9236 32.225 38.9236 23.9618C38.9236 15.6986 32.225 9 23.9618 9C15.6986 9 9 15.6986 9 23.9618C9 32.225 15.6986 38.9236 23.9618 38.9236ZM24.0262 16.4809C22.8249 16.4809 21.1623 17.1679 20.3128 18.0155L18.0056 20.3173H29.5057L33.3512 16.4809H24.0262ZM27.5914 29.9082C26.7419 30.7556 25.0794 31.4428 23.878 31.4428H14.5532L18.3985 27.6064H29.8986L27.5914 29.9082ZM31.3291 22.2355H16.0871L15.3671 22.9548C13.6623 24.4893 14.168 25.6882 16.5554 25.6882H31.8386L32.5588 24.9689C34.247 23.4434 33.7165 22.2355 31.3291 22.2355Z" fill="#01824C"/>
</g>
<defs>
<clipPath id="clip0_13024_2618">
<rect width="30" height="30" fill="white" transform="translate(9 9)"/>
</clipPath>
</defs>
</svg>
