<svg width="48" height="48" viewBox="0 0 48 48" fill="none" xmlns="http://www.w3.org/2000/svg">
<path d="M0 8C0 3.58172 3.58172 0 8 0H40C44.4183 0 48 3.58172 48 8V40C48 44.4183 44.4183 48 40 48H8C3.58172 48 0 44.4183 0 40V8Z" fill="#F5F5F5"/>
<g clip-path="url(#clip0_13024_2661)">
<path d="M23.9997 39C32.2844 39 39 32.2838 39 23.9997C39 15.7156 32.2844 9 23.9997 9C15.715 9 9 15.7156 9 23.9997C9 32.2838 15.7156 39 23.9997 39Z" fill="#2196F3"/>
<path fill-rule="evenodd" clip-rule="evenodd" d="M17.8022 28.286H27.7229V21.0115C27.7229 19.9155 26.8348 19.0273 25.7388 19.0273H15.8181V26.3019C15.8181 27.3979 16.7063 28.286 17.8022 28.286ZM29.0451 25.6411L33.0133 28.286V19.0273L29.0457 21.6729L29.0451 25.6411Z" fill="white"/>
</g>
<defs>
<clipPath id="clip0_13024_2661">
<rect width="30" height="30" fill="white" transform="translate(9 9)"/>
</clipPath>
</defs>
</svg>
