<svg width="60" height="60" viewBox="0 0 60 60" fill="none" xmlns="http://www.w3.org/2000/svg">
<circle cx="30" cy="30" r="30" fill="#55BDBD"/>
<path d="M28.214 34.3112C28.7184 33.4023 29.1977 32.5302 29.6769 31.6459C32.5396 26.5733 35.5789 21.6234 39.6901 17.4105C40.989 16.084 42.5023 14.9418 43.9904 13.8118C45.0371 13.0134 45.7307 12.9029 46.5 13.0626C46.2604 14.0574 46.0586 15.0646 45.7812 16.0472C45.6929 16.3665 45.4659 16.6736 45.2136 16.8947C39.8035 21.8691 36.2346 27.9858 33.5611 34.6674C32.7666 36.6817 32.1613 38.7697 31.4676 40.8331C31.4172 40.9805 31.4172 41.2262 31.3289 41.2631C29.9417 41.8772 28.5671 42.4913 27.1421 42.9949C26.9781 43.0563 26.4736 42.5527 26.3097 42.2211C24.5315 38.6346 21.8958 35.7605 18.68 33.3777C17.936 32.825 17.8603 32.2109 18.1756 31.4985C18.8439 29.9387 19.5628 28.391 20.3068 26.868C20.7356 25.9837 21.3157 25.9714 21.8832 26.7083C22.5894 27.6295 23.3461 28.5139 24.0901 29.4105C25.4269 31.0072 26.7763 32.5916 28.214 34.3112Z" fill="white"/>
</svg>
