<svg width="81" height="70" viewBox="0 0 81 70" fill="none" xmlns="http://www.w3.org/2000/svg">
<path opacity="0.8" fill-rule="evenodd" clip-rule="evenodd" d="M77.5931 28.62C79.3552 30.413 80.3426 32.8265 80.3426 35.3405C80.3426 37.8545 79.3552 40.2679 77.5931 42.0609L53.0641 66.8969C52.1984 67.7789 51.1655 68.4795 50.0259 68.9578C48.8864 69.436 47.6629 69.6823 46.4271 69.6823C45.1912 69.6823 43.9678 69.436 42.8282 68.9578C41.6886 68.4795 40.6558 67.7789 39.79 66.8969C38.0279 65.1039 37.0405 62.6905 37.0405 60.1765C37.0405 57.6625 38.0279 55.249 39.79 53.456L64.3191 28.62C65.1848 27.738 66.2176 27.0374 67.3572 26.5591C68.4967 26.0809 69.7202 25.8346 70.9561 25.8346C72.1919 25.8346 73.4154 26.0809 74.5549 26.5591C75.6945 27.0374 76.7274 27.738 77.5931 28.62Z" fill="#F1F7FB"/>
<path opacity="0.8" fill-rule="evenodd" clip-rule="evenodd" d="M42.0982 3.78503C43.8603 5.57793 44.8477 7.9912 44.8477 10.505C44.8477 13.0189 43.8603 15.4321 42.0982 17.225L16.9922 42.6451C16.1265 43.527 15.0937 44.2276 13.9541 44.7058C12.8145 45.1841 11.591 45.4304 10.3552 45.4304C9.11931 45.4304 7.89586 45.1841 6.75629 44.7058C5.61672 44.2276 4.58391 43.527 3.7182 42.6451C1.95613 40.8522 0.96875 38.4389 0.96875 35.925C0.96875 33.4112 1.95613 30.9979 3.7182 29.205L28.8242 3.78503C29.6899 2.90306 30.7227 2.20246 31.8623 1.72421C33.0019 1.24596 34.2253 0.999634 35.4612 0.999634C36.697 0.999634 37.9205 1.24596 39.0601 1.72421C40.1996 2.20246 41.2325 2.90306 42.0982 3.78503Z" fill="#F3F7FB"/>
<path opacity="0.8" fill-rule="evenodd" clip-rule="evenodd" d="M64.6072 11.381C66.3693 13.174 67.3568 15.5875 67.3568 18.1015C67.3568 20.6155 66.3693 23.0289 64.6072 24.822L25.6502 64.269C24.7841 65.1504 23.751 65.8504 22.6114 66.3283C21.4718 66.8062 20.2484 67.0523 19.0127 67.0523C17.7769 67.0523 16.5535 66.8062 15.4139 66.3283C14.2743 65.8504 13.2413 65.1504 12.3752 64.269C10.6135 62.4757 9.62646 60.0624 9.62646 57.5485C9.62646 55.0347 10.6135 52.6213 12.3752 50.828L51.3312 11.381C52.1969 10.4987 53.2299 9.79786 54.3696 9.31943C55.5094 8.841 56.7331 8.5946 57.9692 8.5946C59.2053 8.5946 60.429 8.841 61.5687 9.31943C62.7085 9.79786 63.7414 10.4987 64.6072 11.381Z" fill="#F1F6FC"/>
<path d="M27.9305 30.8548C27.9305 29.195 28.2965 27.834 29.0285 26.7718C29.7605 25.6763 30.8253 24.4813 32.2228 23.1867C33.1878 22.2905 33.9032 21.5436 34.369 20.9461C34.8348 20.3154 35.0677 19.6515 35.0677 18.9544C35.0677 17.9917 34.6518 17.2282 33.82 16.6639C33.0214 16.0664 31.9733 15.7676 30.6756 15.7676C29.3446 15.7676 28.1301 16.083 27.0321 16.7137C25.9673 17.3444 25.1022 18.2241 24.4367 19.3527L17 15.3693C18.3642 13.0456 20.2941 11.2365 22.7897 9.94191C25.2852 8.6473 28.2965 8 31.8235 8C35.7831 8 38.9608 8.82988 41.3565 10.4896C43.7855 12.1162 45 14.4066 45 17.361C45 18.722 44.7671 19.9336 44.3012 20.9959C43.8354 22.0249 43.2698 22.9046 42.6043 23.6349C41.9721 24.332 41.1402 25.1286 40.1087 26.0249C38.9774 26.9876 38.1456 27.8174 37.6132 28.5145C37.0808 29.1784 36.8146 29.9585 36.8146 30.8548H27.9305ZM32.3726 44C30.7421 44 29.3945 43.5021 28.3298 42.5062C27.265 41.4772 26.7326 40.2324 26.7326 38.7718C26.7326 37.278 27.2484 36.0498 28.2799 35.0871C29.3446 34.1245 30.7089 33.6432 32.3726 33.6432C34.0362 33.6432 35.4005 34.1245 36.4652 35.0871C37.53 36.0498 38.0624 37.278 38.0624 38.7718C38.0624 40.2324 37.53 41.4772 36.4652 42.5062C35.4005 43.5021 34.0362 44 32.3726 44Z" fill="#CC2828"/>
<path d="M53.6364 39.332C53.6364 38.3638 53.8586 37.5698 54.303 36.9502C54.7475 36.3112 55.3939 35.6141 56.2424 34.8589C56.8283 34.3361 57.2626 33.9004 57.5455 33.5519C57.8283 33.184 57.9697 32.7967 57.9697 32.39C57.9697 31.8285 57.7172 31.3831 57.2121 31.0539C56.7273 30.7054 56.0909 30.5311 55.303 30.5311C54.4949 30.5311 53.7576 30.7151 53.0909 31.083C52.4444 31.4509 51.9192 31.964 51.5152 32.6224L47 30.2988C47.8283 28.9433 49 27.888 50.5152 27.1328C52.0303 26.3776 53.8586 26 56 26C58.404 26 60.3333 26.4841 61.7879 27.4523C63.2626 28.4011 64 29.7372 64 31.4606C64 32.2545 63.8586 32.9613 63.5758 33.5809C63.2929 34.1812 62.9495 34.6943 62.5455 35.1203C62.1616 35.527 61.6566 35.9917 61.0303 36.5145C60.3434 37.0761 59.8384 37.5602 59.5152 37.9668C59.1919 38.3541 59.0303 38.8091 59.0303 39.332H53.6364ZM56.3333 47C55.3434 47 54.5253 46.7095 53.8788 46.1286C53.2323 45.5284 52.9091 44.8022 52.9091 43.9502C52.9091 43.0788 53.2222 42.3624 53.8485 41.8008C54.4949 41.2393 55.3232 40.9585 56.3333 40.9585C57.3434 40.9585 58.1717 41.2393 58.8182 41.8008C59.4646 42.3624 59.7879 43.0788 59.7879 43.9502C59.7879 44.8022 59.4646 45.5284 58.8182 46.1286C58.1717 46.7095 57.3434 47 56.3333 47Z" fill="#257671"/>
<path d="M42.2941 55.888C42.2941 55.2425 42.4379 54.7132 42.7255 54.3001C43.0131 53.8741 43.4314 53.4094 43.9804 52.9059C44.3595 52.5574 44.6405 52.2669 44.8235 52.0346C45.0065 51.7893 45.098 51.5311 45.098 51.26C45.098 50.8857 44.9346 50.5888 44.6078 50.3693C44.2941 50.1369 43.8824 50.0207 43.3725 50.0207C42.8497 50.0207 42.3725 50.1434 41.9412 50.3887C41.5229 50.6339 41.183 50.976 40.9216 51.4149L38 49.8658C38.5359 48.9622 39.2941 48.2586 40.2745 47.7552C41.2549 47.2517 42.4379 47 43.8235 47C45.3791 47 46.6275 47.3227 47.5686 47.9682C48.5229 48.6007 49 49.4915 49 50.6404C49 51.1697 48.9085 51.6408 48.7255 52.0539C48.5425 52.4541 48.3203 52.7962 48.0588 53.0802C47.8105 53.3513 47.4837 53.6611 47.0784 54.0097C46.634 54.384 46.3072 54.7068 46.098 54.9779C45.8889 55.2361 45.7843 55.5394 45.7843 55.888H42.2941ZM44.0392 61C43.3987 61 42.8693 60.8064 42.451 60.4191C42.0327 60.0189 41.8235 59.5348 41.8235 58.9668C41.8235 58.3859 42.0261 57.9083 42.4314 57.5339C42.8497 57.1595 43.3856 56.9723 44.0392 56.9723C44.6928 56.9723 45.2288 57.1595 45.6471 57.5339C46.0654 57.9083 46.2745 58.3859 46.2745 58.9668C46.2745 59.5348 46.0654 60.0189 45.6471 60.4191C45.2288 60.8064 44.6928 61 44.0392 61Z" fill="#8E8E8E"/>
</svg>
