<svg version="1.1" id="img" xmlns="http://www.w3.org/2000/svg" xmlns:xlink="http://www.w3.org/1999/xlink" viewBox="0 0 512 512" width="21px" height="21px" xml:space="preserve" fill="currentColor"><g id="SVGRepo_bgCarrier" stroke-width="0"></g><g id="SVGRepo_tracerCarrier" stroke-linecap="round" stroke-linejoin="round"></g><g id="SVGRepo_iconCarrier"> <style type="text/css">  .st0{fill:currentColor;}  </style> <g> <path class="st0" d="M225.665,384.211l-28.984,29.234c-6.828,6.953-14.5,11.984-22.797,15.406c-12.422,5.109-26.234,6.484-39.328,4 c-13.156-2.484-25.531-8.625-35.859-18.766c-6.859-6.859-11.875-14.546-15.344-22.796c-5.109-12.453-6.5-26.25-4.016-39.406 c2.484-13.125,8.641-25.516,18.828-35.75l73.016-73.938c6.828-6.844,14.516-11.953,22.813-15.313 c12.453-5.156,26.219-6.563,39.359-4.078c13.156,2.5,25.531,8.656,35.813,18.859c5.719,5.578,10.109,11.828,13.406,18.5 c0.297,0.063,0.547,0.156,0.781,0.203c7.641,1.5,15.797,0.703,22.953-2.234c5-2,9.5-4.969,13.391-8.906l29.609-29.594 c-6.641-12.063-15.094-23.359-25.313-33.469c-14.406-14.156-31.141-24.938-48.906-32c-26.719-10.625-55.734-13.156-83.547-7.641 c-27.734,5.547-54.438,19.266-75.734,40.891L42.743,261.29c-14.25,14.375-25,31.078-32.078,48.906 c-10.609,26.703-13.141,55.719-7.625,83.5c5.531,27.781,19.266,54.468,40.906,75.781c14.344,14.234,31.109,24.984,48.891,32.047 c26.703,10.672,55.719,13.141,83.484,7.625c27.781-5.516,54.469-19.281,75.797-40.859l73.063-73.89 c0.391-0.391,0.703-0.781,1.078-1.172c-0.547,0.078-1.078,0.234-1.625,0.313C291.337,399.993,257.134,396.758,225.665,384.211z"></path> <path class="st0" d="M509.087,119.133c-5.328-27.813-18.953-54.578-40.422-76.031c-14.266-14.281-30.969-25.156-48.703-32.313 c-26.656-10.813-55.641-13.469-83.469-8.094c-27.813,5.359-54.578,18.969-76.016,40.406l-73.484,73.5 c-0.531,0.547-1.078,1.156-1.672,1.719c0.219,0,0.422-0.063,0.625-0.063c33.516-6.719,68.078-3.594,99.828,9.094 c0.156,0.016,0.313,0.141,0.5,0.188l29.344-29.297c6.844-6.859,14.578-11.875,22.875-15.25c12.438-5.078,26.203-6.313,39.375-3.797 c13.109,2.547,25.438,8.766,35.703,19.047c6.844,6.844,11.844,14.547,15.203,22.859c5.078,12.469,6.359,26.25,3.828,39.391 c-2.578,13.109-8.797,25.453-19.031,35.703l-73.5,73.453c-6.828,6.859-14.578,11.875-22.875,15.266 c-12.438,5.047-26.25,6.297-39.359,3.781c-13.156-2.578-25.453-8.781-35.719-19.047c-5.516-5.547-9.875-11.656-13.109-18.234 c-0.344-0.078-0.703-0.188-1-0.219c-7.672-1.453-15.859-0.656-22.953,2.313c-5,2.078-9.469,5.078-13.328,8.984l-29.328,29.656 c6.5,11.734,14.703,22.719,24.594,32.609c14.313,14.328,31,25.172,48.734,32.375c26.625,10.797,55.656,13.453,83.469,8.063 c27.781-5.359,54.531-18.938,76.031-40.438l73.438-73.453c14.313-14.297,25.172-30.984,32.328-48.719 C511.806,175.946,514.493,146.946,509.087,119.133z"></path> </g> </g></svg>