<svg width="36" height="36" viewBox="0 0 36 36" fill="none" xmlns="http://www.w3.org/2000/svg">
<g clip-path="url(#clip0_11_201)">
<path d="M18.0004 1.45256e-05C15.6612 -0.00296338 13.344 0.451966 11.1795 1.33914V19.2271C11.2584 20.7187 11.7927 22.1503 12.7103 23.3288C13.628 24.5073 14.885 25.3761 16.3118 25.818C17.7385 26.26 19.2665 26.2539 20.6897 25.8005C22.1129 25.3471 23.3628 24.4682 24.271 23.2824C23.9274 25.1901 23.0077 26.9468 21.6356 28.3161C19.5866 30.3635 16.6579 31.4951 13.7804 30.8873C13.4082 30.8089 13.0417 30.7054 12.6834 30.5776C10.5207 29.8051 8.68411 28.1925 7.41252 26.3296C5.91268 24.1184 5.1095 21.5087 5.10652 18.8368C5.10652 18.6605 5.10652 18.4843 5.11805 18.3097V5.41912C2.21429 8.39059 0.427965 12.2752 0.062169 16.4137C-0.303627 20.5523 0.773629 24.6899 3.11116 28.1247C5.44869 31.5594 8.90253 34.0797 12.8867 35.2579C16.8708 36.436 21.1399 36.1996 24.9695 34.5886C28.7992 32.9776 31.9535 30.0913 33.8974 26.4194C35.8413 22.7475 36.455 18.5162 35.6344 14.4434C34.8138 10.3705 32.6094 6.70702 29.3952 4.07441C26.181 1.44181 22.1551 0.00226279 18.0004 1.45256e-05ZM19.7463 32.1325C20.9988 31.5588 22.1385 30.7656 23.1115 29.7903C25.821 27.0824 26.9345 22.8344 26.3366 19.1003C25.7947 15.722 23.0275 11.4806 19.1764 11.5531V13.4457C19.1764 13.7125 18.9887 15.0533 19.1764 15.2378L12.8481 8.90942L19.1781 2.57944V5.49654C22.5471 5.67086 25.7255 7.11361 28.0745 9.53496C30.4236 11.9563 31.7694 15.1769 31.8415 18.5497C31.9137 21.9225 30.7069 25.1977 28.4636 27.7173C26.2202 30.2369 23.1065 31.8142 19.748 32.1325H19.7463Z" fill="white"/>
<path d="M19.746 32.1325C20.9984 31.5588 22.1381 30.7655 23.1111 29.7902C25.8206 27.0823 26.9341 22.8343 26.3362 19.1003C25.7943 15.722 23.0271 11.4806 19.176 11.5531V13.4456C19.176 13.7125 18.9883 15.0532 19.176 15.2377L12.8477 8.90939L19.1777 2.57941V5.4965C22.5468 5.67082 25.7251 7.11357 28.0741 9.53492C30.4232 11.9563 31.769 15.1768 31.8412 18.5496C31.9133 21.9224 30.7065 25.1976 28.4632 27.7172C26.2198 30.2368 23.1061 31.8142 19.7476 32.1325H19.746Z" fill="#55BDBD"/>
</g>
<defs>
<clipPath id="clip0_11_201">
<rect width="36" height="36" fill="white"/>
</clipPath>
</defs>
</svg>
