<svg width="20" height="21" viewBox="0 0 20 21" fill="none" xmlns="http://www.w3.org/2000/svg">
<path d="M17.5 3.83329C17.0394 3.83329 16.6667 4.20646 16.6667 4.66663V5.50288C15.1193 3.44421 12.6654 2.16663 10 2.16663C6.0816 2.16663 2.73927 4.83221 1.8726 8.64854C1.77085 9.09738 2.05243 9.54413 2.50085 9.64588C2.56352 9.66013 2.62535 9.66663 2.68635 9.66663C3.06643 9.66663 3.4106 9.40454 3.49852 9.01804C4.1911 5.96546 6.86527 3.83329 10 3.83329C12.4038 3.83329 14.5847 5.13788 15.7619 7.16663H14.1667C13.7061 7.16663 13.3333 7.53979 13.3333 7.99996C13.3333 8.46013 13.7061 8.83329 14.1667 8.83329H17.5C17.9606 8.83329 18.3333 8.46013 18.3333 7.99996V4.66663C18.3333 4.20646 17.9606 3.83329 17.5 3.83329Z" fill="#257671"/>
<path d="M2.50008 17.1666C2.96066 17.1666 3.33341 16.7934 3.33341 16.3332V15.4789C4.88908 17.5707 7.32358 18.8332 10.0001 18.8332C13.9185 18.8332 17.2608 16.1677 18.1275 12.3513C18.2292 11.9025 17.9477 11.4557 17.4992 11.354C17.046 11.2494 16.6032 11.533 16.5015 11.9818C15.809 15.0344 13.1348 17.1666 10.0001 17.1666C7.59541 17.1666 5.43508 15.8937 4.24333 13.8332H5.83341C6.294 13.8332 6.66675 13.4601 6.66675 12.9999C6.66675 12.5397 6.294 12.1666 5.83341 12.1666H2.50008C2.0395 12.1666 1.66675 12.5397 1.66675 12.9999V16.3332C1.66675 16.7934 2.0395 17.1666 2.50008 17.1666Z" fill="#257671"/>
</svg>
