<?xml version="1.0" encoding="utf-8"?>
<svg fill="currentColor" width="23px" height="24px" version="1.1" id="img" xmlns="http://www.w3.org/2000/svg" xmlns:xlink="http://www.w3.org/1999/xlink" viewBox="0 0 507.40 507.40" xml:space="preserve" stroke="#fffff" stroke-width="0.005074">
<g id="SVGRepo_bgCarrier" stroke-width="0"/>
<g id="SVGRepo_tracerCarrier" stroke-linecap="round" stroke-linejoin="round" stroke-width="1.0148"/>
<g id="SVGRepo_iconCarrier"> <g> <g> <path d="M388,391.8c-7.8,0-14.1,6.3-14.1,14.1v24.5c0,7.8,6.3,14.1,14.1,14.1s14.1-6.3,14.1-14.1v-24.5 C402.1,398.1,395.7,391.8,388,391.8z"/> </g> </g> <g> <g> <path d="M466.8,322v-50.7c0-38.5-27.7-70.5-64.2-77.5v-28c0-10.4-4-19.9-10.4-27.1c6.5-7.4,10.4-17.1,10.4-27.7V42.3 c0-23.3-19-42.3-42.3-42.3h-318C19,0,0,19,0,42.3v68.8c0,10.6,3.9,20.3,10.4,27.7C3.9,146,0,155.5,0,165.9v71.9 c0,10.2,3.8,19.5,10,26.6C3.8,271.5,0,280.8,0,291v71.9c0,22.5,18.3,40.8,40.7,40.8h228c1.4,57.4,54.3,103.7,119.3,103.7 c65.8,0,119.4-47.6,119.4-106C507.4,369.8,491.6,341.4,466.8,322z M438.7,271.3v34.2c-15.4-6.5-32.6-10.2-50.7-10.2 c-18.1,0-35.3,3.7-50.7,10.2v-34.2c0-28,22.7-50.7,50.7-50.7S438.7,243.4,438.7,271.3z M28.2,42.3c0-7.8,6.3-14.1,14.1-14.1h318.1 c7.8,0,14.1,6.3,14.1,14.1v68.8c0,7.8-6.3,14.1-14.1,14.1H42.3c-7.8,0-14.1-6.3-14.1-14.1V42.3z M28.2,165.9 c0-6.9,5.6-12.5,12.5-12.5h321.2c6.9,0,12.5,5.6,12.5,12.5v27.8c-30.2,5.2-54.5,27.6-62.5,56.7H40.7c-6.9,0-12.5-5.6-12.5-12.5 V165.9z M40.7,375.5c-6.9,0-12.5-5.6-12.5-12.5v-71.9c0-6.9,5.6-12.5,12.5-12.5H309v43.5c-17.7,13.8-30.7,32.3-36.7,53.4H40.7z M388,479.2c-50.3,0-91.2-34.9-91.2-77.8c0-42.9,40.9-77.8,91.2-77.8c50.3,0,91.2,34.9,91.2,77.8 C479.2,444.3,438.3,479.2,388,479.2z"/> </g> </g> <g> <g> <path d="M73.4,62.6h-6c-7.8,0-14.1,6.3-14.1,14.1s6.3,14.1,14.1,14.1h6c7.8,0,14.1-6.3,14.1-14.1S81.2,62.6,73.4,62.6z"/> </g> </g> <g> <g> <path d="M126.6,62.6h-6c-7.8,0-14.1,6.3-14.1,14.1s6.3,14.1,14.1,14.1h6c7.8,0,14.1-6.3,14.1-14.1S134.4,62.6,126.6,62.6z"/> </g> </g> <g> <g> <path d="M179.8,62.6h-6c-7.8,0-14.1,6.3-14.1,14.1s6.4,14.1,14.1,14.1h6c7.8,0,14.1-6.3,14.1-14.1S187.6,62.6,179.8,62.6z"/> </g> </g> <g> <g> <path d="M73.4,187.7h-6c-7.8,0-14.1,6.3-14.1,14.1s6.3,14.1,14.1,14.1h6c7.8,0,14.1-6.3,14.1-14.1S81.2,187.7,73.4,187.7z"/> </g> </g> <g> <g> <path d="M126.6,187.7h-6c-7.8,0-14.1,6.3-14.1,14.1s6.3,14.1,14.1,14.1h6c7.8,0,14.1-6.3,14.1-14.1S134.4,187.7,126.6,187.7z"/> </g> </g> <g> <g> <path d="M179.8,187.7h-6c-7.8,0-14.1,6.3-14.1,14.1s6.4,14.1,14.1,14.1h6c7.8,0,14.1-6.3,14.1-14.1S187.6,187.7,179.8,187.7z"/> </g> </g> <g> <g> <path d="M73.4,312.9h-6c-7.8,0-14.1,6.3-14.1,14.1s6.3,14.1,14.1,14.1h6c7.8,0,14.1-6.3,14.1-14.1 C87.5,319.2,81.2,312.9,73.4,312.9z"/> </g> </g> <g> <g> <path d="M126.6,312.9h-6c-7.8,0-14.1,6.3-14.1,14.1s6.3,14.1,14.1,14.1h6c7.8,0,14.1-6.3,14.1-14.1 C140.7,319.2,134.4,312.9,126.6,312.9z"/> </g> </g> <g> <g> <path d="M179.9,312.9h-6c-7.8,0-14.1,6.3-14.1,14.1s6.3,14.1,14.1,14.1h6c7.8,0,14.1-6.3,14.1-14.1 C194,319.2,187.7,312.9,179.9,312.9z"/> </g> </g> </g>
</svg>