<svg id="Layer_1" xmlns="http://www.w3.org/2000/svg" viewBox="0 0 19.5 15.58" width="26" height="18">
<defs>
<style>.cls-1{fill:#fff;}.cls-2{fill:#216df0;}</style></defs>
<path class="cls-1" d="M5.24,2.91l11.78-.04c.57,0,1,.53,.87,1.09l-1.78,7.7c-.09,.4-.45,.69-.86,.69l-8.75,.03c-.4,0-.75-.26-.86-.65L3.18,2.99c-.09-.34-.38-.59-.73-.64l-.83-.12c-.43-.07-.76-.44-.76-.88h0c0-.54,.48-.96,1.02-.88l1.85,.27c.32,.05,.6,.27,.71,.58l.51,1.4c.04,.12,.16,.2,.28,.2Z"/><circle class="cls-1" cx="7.98" cy="14.33" r="1.25"/><circle class="cls-1" cx="13.78" cy="14.31" r="1.25"/><rect class="cls-1" x=".02" y="3.78" width="2.84" height=".87" rx=".24" ry=".24" transform="translate(.69 -.17) rotate(9.16)"/><rect class="cls-1" x="1.16" y="5.59" width="2.17" height=".87" rx=".24" ry=".24" transform="translate(.99 -.28) rotate(9.16)"/><rect class="cls-1" x=".08" y="7.15" width="3.84" height=".87" rx=".24" ry=".24" transform="translate(1.23 -.22) rotate(9.16)"/><g><g><path class="cls-2" d="M13.72,6.16c0,.24-.19,.43-.43,.43-.24,0-.43-.19-.43-.43,0-.24,.19-.43,.43-.43,.24,0,.43,.19,.43,.43Z"/><path class="cls-2" d="M8.62,6.15c0,.24-.19,.43-.43,.43-.24,0-.43-.19-.43-.43,0-.24,.19-.43,.43-.43,.24,0,.43,.19,.43,.43Z"/></g><path class="cls-2" d="M12.24,9.21c-.4,.3-.9,.45-1.46,.46-.57,0-1.06-.16-1.46-.46-1.27-.94-1.25-2.82-1.24-2.91,0-.06,.07-.11,.16-.11h0c.09,0,.16,.05,.16,.12,0,.02-.04,1.81,1.14,2.68,.34,.25,.76,.4,1.24,.4,.48,0,.9-.16,1.24-.4,1.21-.87,1.16-2.66,1.16-2.68,0-.06,.07-.12,.16-.12h0c.09,0,.16,.05,.16,.11,0,.09,.03,1.96-1.24,2.91Z"/></g><circle class="cls-1" cx="16.13" cy="3.37" r="3.37"/><circle class="cls-2" cx="16.13" cy="3.37" r="2.98"/><path class="cls-1" d="M17.67,5.09h-.36c-.06,0-.12-.05-.12-.11-.06-1.41-1.19-2.55-2.61-2.61-.06,0-.11-.05-.11-.12v-.36c0-.07,.06-.12,.12-.12,1.74,.06,3.13,1.46,3.19,3.19,0,.07-.05,.12-.12,.12Zm-1.07,0h-.36c-.06,0-.11-.05-.12-.11-.05-.83-.72-1.49-1.54-1.54-.06,0-.11-.06-.11-.12v-.36c0-.07,.06-.12,.12-.12,1.14,.06,2.06,.98,2.12,2.12,0,.07-.05,.12-.12,.12Zm-1.65,0c-.26,0-.47-.21-.47-.47s.21-.47,.47-.47,.47,.21,.47,.47-.21,.47-.47,.47Z"/></svg>