    <svg xmlns="http://www.w3.org/2000/svg" width="30" height="32" viewBox="0 0 30 32" fill="white">
        <g clipPath="url(#clip0_1688_2013)">
            <path d="M10.1203 1.01286C10.1203 0.453471 9.66787 0 9.10977 0C8.55167 0 8.09924 0.453471 8.09924 1.01286V4.05141C8.09924 4.6108 8.55167 5.06427 9.10977 5.06427C9.66787 5.06427 10.1203 4.6108 10.1203 4.05141V1.01286Z" fill="#6C757D"/>
            <path d="M22.2466 1.01286C22.2466 0.453471 21.7942 0 21.2361 0C20.678 0 20.2256 0.453471 20.2256 1.01286V4.05141C20.2256 4.6108 20.678 5.06427 21.2361 5.06427C21.7942 5.06427 22.2466 4.6108 22.2466 4.05141V1.01286Z" fill="#6C757D"/>
            <path fillRule="evenodd" clipRule="evenodd" d="M17.3622 16.8131C17.2566 17.6376 16.9154 18.3876 16.4061 18.992C15.8715 19.6303 15.152 20.1068 14.3302 20.3405L14.2947 20.3506L14.2145 20.3718L14.2078 20.3735L7.84399 22.0834V20.6003C7.84399 20.5673 7.84399 20.5343 7.84738 20.5013C7.88455 19.8808 8.27389 19.3543 8.81778 19.1215C8.87942 19.0944 8.94277 19.0716 9.00865 19.0538L9.06861 19.0377L17.3613 16.8105V16.8131H17.3622Z" fill="#6C757D"/>
            <path fillRule="evenodd" clipRule="evenodd" d="M22.503 11.3442C22.2868 13.0363 21.0731 14.4161 19.471 14.8716L19.4355 14.8817L19.3562 14.9029H19.3553L19.3486 14.9046L7.84399 17.9943V16.5113C7.84399 15.8476 8.24516 15.2779 8.81778 15.0324L9.00865 14.9647L9.06776 14.9486L22.5021 11.3408V11.3442H22.503Z" fill="#6C757D"/>
            <path fillRule="evenodd" clipRule="evenodd" d="M6.33094 3.54525H24.0152C26.3871 3.54525 28.3099 5.4725 28.3099 7.84988V22.1785H30.331V7.84988C30.331 4.35371 27.5033 1.51953 24.0152 1.51953H6.33094C2.84281 1.51953 0.0151367 4.35371 0.0151367 7.84988V25.5748C0.0151367 29.071 2.84281 31.9052 6.33094 31.9052H20.5468V29.8795H6.33094C3.95902 29.8795 2.03619 27.9522 2.03619 25.5748V7.84988C2.03619 5.4725 3.95902 3.54525 6.33094 3.54525Z" fill="#6C757D"/>
            <path fillRule="evenodd" clipRule="evenodd" d="M30.346 22.415V22.083H20.5468V31.9048H20.8779L30.346 22.415Z" fill="#6C757D"/>
        </g>
        <defs>
            <clipPath id="clip0_1688_2013">
                <rect width="159" height="32" fill="white"/>
            </clipPath>
        </defs>
    </svg>