<svg width="318" height="59" viewBox="0 0 318 59" fill="none" xmlns="http://www.w3.org/2000/svg">
<rect x="16.0967" y="0.192383" width="3.68249" height="9.20621" rx="1.84125" fill="#2653C7"/>
<rect x="38.1914" y="0.192383" width="3.68249" height="9.20621" rx="1.84125" fill="#2653C7"/>
<path fill-rule="evenodd" clip-rule="evenodd" d="M32.9746 30.7556C32.7822 32.2544 32.1605 33.6178 31.2326 34.7166C30.2585 35.8768 28.9474 36.7432 27.4501 37.1679L27.3855 37.1864L27.2393 37.2249L27.227 37.2279L15.6318 40.3364V37.6403C15.6318 37.5803 15.6318 37.5203 15.638 37.4603C15.7057 36.3323 16.4151 35.3752 17.4061 34.952C17.5185 34.9028 17.6339 34.8612 17.7539 34.8289L17.8632 34.7996L32.973 30.751V30.7556H32.9746Z" fill="#2653C7"/>
<path fill-rule="evenodd" clip-rule="evenodd" d="M42.3415 20.8157C41.9475 23.8919 39.7362 26.4002 36.817 27.2281L36.7524 27.2465L36.6077 27.285H36.6062L36.5939 27.2881L15.6318 32.9048V30.2088C15.6318 29.0023 16.3628 27.9667 17.4061 27.5204L17.7539 27.3973L17.8616 27.3681L42.3399 20.8096V20.8157H42.3415Z" fill="#2653C7"/>
<path d="M45.0967 2.95508C51.4521 2.95513 56.6044 8.10748 56.6045 14.4629V40.5098H52.9219V14.4629C52.9217 10.1413 49.4183 6.63775 45.0967 6.6377H12.875C8.55329 6.6377 5.04994 10.1412 5.0498 14.4629V46.6846C5.0498 51.0064 8.55321 54.5098 12.875 54.5098H38.7773V58.1914H45.1709C45.1462 58.1916 45.1214 58.1924 45.0967 58.1924H12.875C6.51942 58.1924 1.36719 53.0401 1.36719 46.6846V14.4629C1.36733 8.10745 6.5195 2.95508 12.875 2.95508H45.0967Z" fill="#2653C7"/>
<path d="M56.6318 40.9395L39.3799 58.1914H38.7773V45.5684C38.7773 42.679 41.1194 40.337 44.0088 40.3369H56.6318V40.9395Z" fill="#2653C7"/>
<path d="M80.0089 14.6006C80.5351 14.548 80.9364 14.6203 81.2127 14.8178C81.4889 15.0153 81.627 15.3248 81.627 15.7461C81.627 16.5625 81.1797 17.0103 80.2851 17.0893L79.1405 17.1682C77.6406 17.2735 76.5222 17.7278 75.7854 18.5311C75.0487 19.3342 74.6146 20.5391 74.4829 22.1455L74.404 23.2516H78.7063C79.1273 23.2516 79.4497 23.3635 79.6734 23.5873C79.897 23.8112 80.0089 24.1075 80.0089 24.4762C80.0089 24.8712 79.8904 25.1871 79.6535 25.4242C79.4168 25.6612 79.0747 25.7796 78.6274 25.7796H74.2066L72.983 41.146C72.9567 41.6464 72.7857 42.0283 72.47 42.2917C72.1542 42.5549 71.7726 42.6867 71.3253 42.6867C70.878 42.6867 70.503 42.5549 70.2004 42.2917C69.8978 42.0283 69.7597 41.6464 69.786 41.146L71.0095 25.7796H68.365C67.944 25.7796 67.6216 25.6677 67.398 25.4439C67.1743 25.2201 67.0625 24.9239 67.0625 24.5552C67.0625 24.1601 67.1809 23.8441 67.4177 23.607C67.6546 23.3701 68.0097 23.2516 68.4835 23.2516H71.2069L71.2464 22.5405C71.4305 19.986 72.1805 18.0702 73.4962 16.7929C74.8119 15.5157 76.7196 14.7981 79.2194 14.64L80.0089 14.6006Z" fill="#2C2C2C"/>
<path d="M83.9162 42.6869C83.4688 42.6869 83.1005 42.5551 82.8111 42.2919C82.5216 42.0285 82.39 41.6335 82.4164 41.1067L84.4293 15.9044C84.4556 15.404 84.6399 15.0288 84.982 14.7786C85.3241 14.5283 85.7187 14.4033 86.1661 14.4033C86.6134 14.4033 86.9752 14.5283 87.2514 14.7786C87.5278 15.0288 87.6527 15.404 87.6264 15.9044L85.6134 41.1067C85.5871 41.6335 85.4096 42.0285 85.0806 42.2919C84.7517 42.5551 84.3636 42.6869 83.9162 42.6869Z" fill="#2C2C2C"/>
<path d="M106.848 22.8574C107.322 22.8574 107.697 22.9957 107.973 23.2722C108.249 23.5486 108.361 23.9372 108.308 24.4375L106.966 41.2259C106.94 41.6735 106.762 42.0291 106.433 42.2925C106.105 42.5558 105.716 42.6875 105.269 42.6875C104.822 42.6875 104.467 42.5624 104.203 42.3122C103.94 42.0621 103.822 41.7131 103.848 41.2654L104.006 39.3693C103.348 40.4491 102.467 41.2851 101.362 41.8777C100.256 42.4702 99.0196 42.7665 97.6512 42.7665C95.5199 42.7665 93.9016 42.2069 92.7964 41.0876C91.6912 39.9685 91.1387 38.3291 91.1387 36.1696C91.1387 35.6956 91.1518 35.34 91.1781 35.1031L92.007 24.4375C92.0596 23.9372 92.2503 23.5486 92.5793 23.2722C92.9082 22.9957 93.2963 22.8574 93.7438 22.8574C94.2174 22.8574 94.5924 22.9957 94.8686 23.2722C95.1449 23.5486 95.2567 23.9372 95.2041 24.4375L94.3752 34.9056C94.3489 35.0899 94.3358 35.3664 94.3358 35.735C94.3358 38.6319 95.7173 40.0804 98.4802 40.0804C100.19 40.0804 101.559 39.5536 102.585 38.5003C103.611 37.4469 104.19 35.9853 104.322 34.1156L105.111 24.4375C105.164 23.9372 105.355 23.5486 105.684 23.2722C106.012 22.9957 106.401 22.8574 106.848 22.8574Z" fill="#2C2C2C"/>
<path d="M115.255 33.3638V33.5219C115.255 35.6286 115.774 37.2614 116.814 38.4201C117.853 39.5788 119.36 40.1582 121.333 40.1582C123.412 40.1582 125.241 39.5788 126.82 38.4201C127.083 38.2358 127.346 38.1436 127.609 38.1436C127.925 38.1436 128.181 38.2621 128.379 38.4992C128.576 38.7361 128.675 39.0126 128.675 39.3287C128.675 39.8028 128.464 40.2372 128.043 40.6322C127.333 41.2643 126.339 41.7779 125.063 42.1729C123.787 42.5679 122.491 42.7654 121.175 42.7654C118.386 42.7654 116.169 41.9227 114.525 40.2372C112.88 38.5518 112.058 36.287 112.058 33.4428C112.058 31.3361 112.446 29.4795 113.222 27.873C113.998 26.2666 115.104 25.0157 116.538 24.1204C117.972 23.225 119.636 22.7773 121.531 22.7773C124.109 22.7773 126.083 23.5475 127.451 25.0882C128.819 26.6287 129.504 28.8607 129.504 31.7838C129.504 32.2841 129.372 32.6726 129.109 32.9491C128.846 33.2256 128.491 33.3638 128.043 33.3638H115.255ZM121.649 25.266C119.886 25.266 118.478 25.786 117.426 26.8262C116.373 27.8665 115.702 29.361 115.413 31.3098H126.622C126.701 29.3347 126.3 27.8336 125.418 26.8065C124.537 25.7794 123.28 25.266 121.649 25.266Z" fill="#2C2C2C"/>
<path d="M144.187 22.7773C146.345 22.7773 147.989 23.3435 149.121 24.4759C150.252 25.6083 150.818 27.2542 150.818 29.4137C150.818 29.8877 150.805 30.2433 150.779 30.4802L149.95 41.1062C149.897 41.633 149.713 42.028 149.397 42.2914C149.081 42.5547 148.7 42.6864 148.252 42.6864C147.752 42.6864 147.364 42.5547 147.088 42.2914C146.812 42.028 146.7 41.633 146.752 41.1062L147.581 30.6777C147.608 30.4934 147.621 30.2169 147.621 29.8482C147.621 26.925 146.213 25.4635 143.398 25.4635C141.608 25.4635 140.187 25.9968 139.135 27.0633C138.082 28.1298 137.477 29.5979 137.319 31.4677L136.53 41.1062C136.503 41.633 136.332 42.028 136.017 42.2914C135.701 42.5547 135.306 42.6864 134.832 42.6864C134.359 42.6864 133.984 42.5547 133.708 42.2914C133.431 42.028 133.306 41.633 133.333 41.1062L134.714 24.3574C134.74 23.8834 134.918 23.5147 135.247 23.2513C135.576 22.9879 135.964 22.8563 136.411 22.8563C136.859 22.8563 137.214 22.9879 137.477 23.2513C137.74 23.5147 137.859 23.8702 137.832 24.3179L137.674 26.214C138.332 25.1342 139.227 24.2915 140.358 23.6859C141.49 23.0802 142.766 22.7773 144.187 22.7773Z" fill="#2C2C2C"/>
<path d="M160.488 35.5365C160.461 35.721 160.448 35.9843 160.448 36.3266C160.448 37.5907 160.738 38.552 161.316 39.2102C161.895 39.8686 162.711 40.1979 163.764 40.1979C164.106 40.1979 164.435 40.1781 164.75 40.1386C165.066 40.0991 165.303 40.0794 165.461 40.0794C165.724 40.0794 165.941 40.1847 166.112 40.3954C166.283 40.606 166.369 40.8957 166.369 41.2644C166.369 41.8174 166.138 42.2059 165.678 42.4298C165.217 42.6536 164.408 42.7655 163.25 42.7655C161.356 42.7655 159.882 42.2256 158.83 41.1459C157.777 40.0661 157.251 38.5387 157.251 36.5636C157.251 36.1949 157.264 35.9052 157.29 35.6946L158.04 25.7795H155.435C155.014 25.7795 154.692 25.6676 154.468 25.4438C154.245 25.2199 154.133 24.9237 154.133 24.555C154.133 24.1337 154.258 23.811 154.508 23.5872C154.758 23.3634 155.106 23.2514 155.554 23.2514H158.238L158.593 18.7482C158.646 18.3005 158.823 17.9384 159.126 17.6619C159.429 17.3853 159.817 17.2471 160.29 17.2471C160.79 17.2471 161.178 17.3919 161.455 17.6816C161.731 17.9714 161.843 18.3531 161.79 18.8271L161.435 23.2514H165.777C166.171 23.2514 166.487 23.3634 166.724 23.5872C166.961 23.811 167.079 24.1074 167.079 24.4761C167.079 24.8974 166.961 25.2199 166.724 25.4438C166.487 25.6676 166.145 25.7795 165.698 25.7795H161.238L160.488 35.5365Z" fill="#2C2C2C"/>
<path d="M312.909 22.8745H317.125V41.8454C317.125 44.8681 316.131 47.1881 314.142 48.8054C312.154 50.4228 309.741 51.2315 306.904 51.2315C302.317 51.2315 299.175 49.6274 297.478 46.4191L301.177 44.2715C302.211 46.3131 304.146 47.3339 306.983 47.3339C308.839 47.3339 310.285 46.8434 311.319 45.8623C312.379 44.9078 312.909 43.5689 312.909 41.8454V39.4194C311.292 41.7261 308.985 42.8795 305.989 42.8795C303.179 42.8795 300.806 41.8852 298.87 39.8966C296.935 37.8815 295.967 35.4555 295.967 32.6184C295.967 29.7814 296.935 27.3686 298.87 25.3801C300.806 23.365 303.179 22.3574 305.989 22.3574C308.985 22.3574 311.292 23.5108 312.909 25.8175V22.8745ZM302.052 37.0729C303.271 38.266 304.783 38.8626 306.586 38.8626C308.389 38.8626 309.887 38.266 311.08 37.0729C312.3 35.8797 312.909 34.3949 312.909 32.6184C312.909 30.842 312.3 29.3572 311.08 28.1641C309.887 26.9709 308.389 26.3743 306.586 26.3743C304.783 26.3743 303.271 26.9709 302.052 28.1641C300.859 29.3572 300.262 30.842 300.262 32.6184C300.262 34.3949 300.859 35.8797 302.052 37.0729Z" fill="#2C2C2C"/>
<path d="M284.819 22.3574C287.099 22.3574 288.942 23.0866 290.347 24.5448C291.753 26.0031 292.455 28.005 292.455 30.5503V42.7602H288.16V30.9878C288.16 29.503 287.762 28.3629 286.967 27.5675C286.171 26.772 285.084 26.3743 283.706 26.3743C282.194 26.3743 280.975 26.8516 280.047 27.8061C279.119 28.7341 278.655 30.1659 278.655 32.1014V42.7602H274.359V22.8745H278.655V25.4198C279.954 23.3782 282.009 22.3574 284.819 22.3574Z" fill="#2C2C2C"/>
<path d="M269.134 19.0964C268.603 19.6266 267.967 19.8918 267.225 19.8918C266.482 19.8918 265.833 19.6266 265.276 19.0964C264.746 18.5395 264.48 17.8899 264.48 17.1475C264.48 16.4051 264.746 15.7688 265.276 15.2385C265.806 14.6817 266.456 14.4033 267.225 14.4033C267.994 14.4033 268.643 14.6817 269.173 15.2385C269.704 15.7688 269.969 16.4051 269.969 17.1475C269.969 17.8899 269.691 18.5395 269.134 19.0964ZM265.077 42.7604V22.8746H269.372V42.7604H265.077Z" fill="#2C2C2C"/>
<path d="M262.188 42.7599H257.058L248.905 33.5727V42.7599H244.609V14.9199H248.905V31.6637L256.62 22.8742H261.87L253.12 32.6182L262.188 42.7599Z" fill="#2C2C2C"/>
<path d="M230.225 43.2772C227.309 43.2772 224.83 42.2697 222.788 40.2546C220.746 38.2395 219.726 35.7604 219.726 32.8173C219.726 29.8742 220.746 27.3951 222.788 25.3801C224.83 23.365 227.309 22.3574 230.225 22.3574C233.168 22.3574 235.647 23.365 237.663 25.3801C239.704 27.3951 240.725 29.8742 240.725 32.8173C240.725 35.7604 239.704 38.2395 237.663 40.2546C235.647 42.2697 233.168 43.2772 230.225 43.2772ZM225.811 37.3115C227.004 38.5046 228.475 39.1012 230.225 39.1012C231.975 39.1012 233.447 38.5046 234.64 37.3115C235.833 36.1183 236.43 34.6203 236.43 32.8173C236.43 31.0143 235.833 29.5163 234.64 28.3231C233.447 27.13 231.975 26.5334 230.225 26.5334C228.475 26.5334 227.004 27.13 225.811 28.3231C224.617 29.5163 224.021 31.0143 224.021 32.8173C224.021 34.6203 224.617 36.1183 225.811 37.3115Z" fill="#2C2C2C"/>
<path d="M206.456 43.2772C203.539 43.2772 201.06 42.2697 199.018 40.2546C196.977 38.2395 195.956 35.7604 195.956 32.8173C195.956 29.8742 196.977 27.3951 199.018 25.3801C201.06 23.365 203.539 22.3574 206.456 22.3574C209.399 22.3574 211.878 23.365 213.893 25.3801C215.935 27.3951 216.955 29.8742 216.955 32.8173C216.955 35.7604 215.935 38.2395 213.893 40.2546C211.878 42.2697 209.399 43.2772 206.456 43.2772ZM202.041 37.3115C203.234 38.5046 204.706 39.1012 206.456 39.1012C208.206 39.1012 209.677 38.5046 210.87 37.3115C212.063 36.1183 212.66 34.6203 212.66 32.8173C212.66 31.0143 212.063 29.5163 210.87 28.3231C209.677 27.13 208.206 26.5334 206.456 26.5334C204.706 26.5334 203.234 27.13 202.041 28.3231C200.848 29.5163 200.251 31.0143 200.251 32.8173C200.251 34.6203 200.848 36.1183 202.041 37.3115Z" fill="#2C2C2C"/>
<path d="M189.265 28.3229C190.484 28.9592 191.439 29.8342 192.128 30.9478C192.818 32.0614 193.162 33.3474 193.162 34.8056C193.162 37.0859 192.354 38.9816 190.736 40.493C189.119 42.0043 187.144 42.7599 184.81 42.7599H172.879V14.9199H183.935C186.216 14.9199 188.138 15.6623 189.702 17.1471C191.293 18.6054 192.089 20.4349 192.089 22.6356C192.089 25.0484 191.147 26.9442 189.265 28.3229ZM183.935 19.2152H177.453V26.5332H183.935C184.943 26.5332 185.791 26.1885 186.481 25.4991C187.17 24.7832 187.515 23.9083 187.515 22.8742C187.515 21.8402 187.17 20.9784 186.481 20.2891C185.791 19.5732 184.943 19.2152 183.935 19.2152ZM184.81 38.4646C185.871 38.4646 186.759 38.0934 187.475 37.351C188.217 36.5821 188.589 35.6541 188.589 34.567C188.589 33.4799 188.217 32.5652 187.475 31.8228C186.759 31.0539 185.871 30.6694 184.81 30.6694H177.453V38.4646H184.81Z" fill="#2C2C2C"/>
</svg>
