<svg xmlns="http://www.w3.org/2000/svg" height="800" width="1200" viewBox="-17.0838 -18.65685 148.0596 111.9411"><path d="M57.0328 0C45.2275 0 35.2216 8.0032 32.1204 18.8466c-2.6952-5.7515-8.5359-9.781-15.2633-9.781C7.6053 9.0657 0 16.671 0 25.9228c0 9.2519 7.6052 16.8606 16.857 16.8606 6.7275 0 12.5682-4.0319 15.2635-9.7844 3.1011 10.8442 13.107 18.85 24.9123 18.85 11.718 0 21.6729-7.885 24.8533-18.607 2.745 5.622 8.5135 9.5414 15.1454 9.5414 9.2518 0 16.8605-7.6087 16.8605-16.8606 0-9.2518-7.6087-16.857-16.8605-16.857-6.632 0-12.4003 3.917-15.1454 9.5378C78.7057 7.8825 68.7507 0 57.0328 0zm0 9.8955c8.9116 0 16.0307 7.1156 16.0307 16.0272s-7.119 16.0308-16.0307 16.0308c-8.9116 0-16.0272-7.1192-16.0272-16.0308S48.1212 9.8955 57.0328 9.8955zm-40.1757 9.0657c3.9044 0 6.965 3.0571 6.965 6.9615s-3.0606 6.965-6.965 6.965-6.9616-3.0606-6.9616-6.965 3.0572-6.9615 6.9616-6.9615zm80.1744 0c3.9044 0 6.965 3.0571 6.965 6.9615s-3.0606 6.965-6.965 6.965-6.9616-3.0606-6.9616-6.965 3.0572-6.9615 6.9616-6.9615z" style="line-height:normal;text-indent:0;text-align:start;text-decoration-line:none;text-decoration-style:solid;text-decoration-color:#000;text-transform:none;white-space:normal;isolation:auto;mix-blend-mode:normal;solid-color:#000;solid-opacity:1" color="#000" font-weight="400" font-family="sans-serif" overflow="visible" fill="#000000"/><path d="M29.1085 63.7615c2.7752 0 4.3275 1.9756 4.3275 4.939 0 .2822-.2352.5174-.5174.5174h-7.4792c.047 2.6342 1.8816 4.1394 3.9983 4.1394 1.3171 0 2.2579-.5644 2.7283-.9408.2822-.1881.5174-.141.6585.1412l.1411.2352c.1411.2351.094.4703-.1411.6585-.5645.4233-1.7875 1.129-3.4338 1.129-3.0575 0-5.4094-2.2109-5.4094-5.4095.047-3.3868 2.3048-5.4094 5.1272-5.4094zm2.8693 4.4216c-.094-2.1638-1.4112-3.2457-2.9164-3.2457-1.7404 0-3.2456 1.129-3.575 3.2457zm15.584-2.9164v-3.622c0-.3292.1882-.5174.5174-.5174h.3764c.3292 0 .4703.1882.4703.5174v2.446h2.1168c.3292 0 .5174.1882.5174.5174v.1412c0 .3292-.1882.4703-.5174.4703h-2.1168v5.1743c0 2.399 1.4582 2.6812 2.2579 2.7282.4233.047.5644.1411.5644.5174v.2823c0 .3292-.141.4704-.5644.4704-2.2579 0-3.622-1.3642-3.622-3.8102zm10.7718-1.5052c1.7875 0 2.9164.7526 3.4339 1.176.2351.188.2822.4233.047.7055l-.1411.2352c-.1882.2822-.4234.2822-.7056.094-.4704-.3292-1.3641-.9407-2.5871-.9407-2.2579 0-4.0453 1.6934-4.0453 4.1864 0 2.446 1.7874 4.1394 4.0453 4.1394 1.4582 0 2.446-.6585 2.9164-1.0819.2822-.1881.4704-.141.6585.1411l.1411.1882c.1411.2822.0941.4704-.141.7056-.5175.4233-1.7876 1.317-3.6691 1.317-3.0575 0-5.4094-2.2108-5.4094-5.4094.047-3.1986 2.399-5.4564 5.4564-5.4564zm6.2562-3.3398c0-.3292-.1882-.5174.141-.5174h.3764c.3293 0 .8467.1882.8467.5174V71.664c0 1.3171.6115 1.4582 1.0819 1.5053.2352 0 .4233.141.4233.4703v.3293c0 .3293-.1411.5174-.5174.5174-.8467 0-2.352-.2822-2.352-2.54zm9.6429 3.3398c3.0104 0 5.4564 2.3048 5.4564 5.3623 0 3.1046-2.446 5.4565-5.4564 5.4565-3.0105 0-5.4565-2.352-5.4565-5.4565 0-3.0575 2.446-5.3623 5.4565-5.3623zm0 9.5958c2.2108 0 3.9982-1.7875 3.9982-4.2335 0-2.3519-1.7874-4.0923-3.9982-4.0923s-4.0454 1.7875-4.0454 4.0923c.047 2.399 1.8346 4.2335 4.0454 4.2335zm23.4722-9.5958c2.493 0 3.3868 2.0697 3.3868 2.0697h.047s-.047-.3293-.047-.7997v-4.6568c0-.3293-.1412-.5174.1881-.5174h.3763c.3293 0 .8467.1881.8467.5174v13.406c0 .3292-.1411.5174-.4704.5174h-.3292c-.3293 0-.5175-.1411-.5175-.4704v-.7997c0-.3763.0941-.6585.0941-.6585h-.047s-.8938 2.1638-3.575 2.1638c-2.7752 0-4.5157-2.2108-4.5157-5.4095-.094-3.1986 1.8345-5.3623 4.5628-5.3623zm.047 9.5958c1.7404 0 3.3398-1.223 3.3398-4.1864 0-2.1167-1.082-4.1394-3.2927-4.1394-1.8345 0-3.3398 1.5052-3.3398 4.1394.047 2.54 1.3641 4.1864 3.2927 4.1864zm-85.8923.9878h.3763c.3293 0 .5174-.1881.5174-.5174V63.7274c0-1.5993 1.7404-2.7412 3.716-2.7412 1.9757 0 3.7161 1.142 3.7161 2.7412v10.1003c0 .3293.1882.5174.5174.5174h.3763c.3293 0 .4704-.1881.4704-.5174V63.6674c0-2.6812-2.6812-3.9983-5.1272-3.9983-2.3519 0-5.0331 1.317-5.0331 3.9983v10.1603c0 .3293.1411.5174.4704.5174zm78.5073-10.3485h-.3763c-.3293 0-.5175.1882-.5175.5175v5.6916c0 1.5993-1.0348 3.0575-3.0575 3.0575-1.9756 0-3.0575-1.4582-3.0575-3.0575v-5.6916c0-.3293-.1881-.5175-.5174-.5175h-.3763c-.3293 0-.4704.1882-.4704.5175v6.068c0 2.6811 1.9756 3.9982 4.4216 3.9982 2.446 0 4.4217-1.317 4.4217-3.9983v-6.068c.047-.3292-.1412-.5174-.4704-.5174zm-46.5643-.0771c-.1152.0184-.2258.0953-.3317.2214L41.5673 66.41l-1.4249 1.6978-2.1571-2.5715-1.1705-1.3955c-.1058-.1261-.2257-.195-.35-.2058-.1244-.0107-.2533.0366-.3795.1424l-.2884.2416c-.2523.2117-.2392.446-.0276.6982l1.9045 2.2693 1.5793 1.8815-2.3124 2.7553c-.0018.002-.0029.0043-.0046.0064l-1.1668 1.39c-.2117.2523-.188.5178.0643.7295l.2885.2407c.2522.2116.481.1585.6927-.0937l1.9036-2.2693 1.425-1.6977 2.157 2.5715c.0015.0016.0032.0029.0047.0046l1.1668 1.391c.2116.2521.4763.275.7285.0633l.2885-.2416c.2522-.2117.2392-.446.0275-.6983l-1.9045-2.2692-1.5792-1.8815 2.3124-2.7553c.0017-.002.0028-.0044.0046-.0064l1.1668-1.39c.2116-.2523.1879-.5179-.0643-.7295l-.2885-.2416c-.1261-.1058-.2459-.1452-.361-.1268z" fill="#000000"/></svg>