<svg xmlns="http://www.w3.org/2000/svg" viewBox="0 0 64 64" id="checklist"><path d="M61,18.34A3.43,3.43,0,0,0,59.76,16l-1.91-1.6a3.48,3.48,0,0,0-4.9.43l-2.4,2.85L47,21.9V11.83a3,3,0,0,0-.88-2.12L39.29,2.88A3,3,0,0,0,37.17,2H6A3,3,0,0,0,3,5V59a3,3,0,0,0,3,3H44a3,3,0,0,0,3-3V37a.93.93,0,0,0-.07-.33L60.19,20.88A3.48,3.48,0,0,0,61,18.34ZM45,59a1,1,0,0,1-1,1H6a1,1,0,0,1-1-1V5A1,1,0,0,1,6,4H37v7a1,1,0,0,0,1,1h7V24a1,1,0,0,0,0,.23L32.2,39.54a.93.93,0,0,0-.2.38s0,0,0,0l-1.93,8.1a1,1,0,0,0,.33,1,1,1,0,0,0,.64.24,1.14,1.14,0,0,0,.4-.08l7.64-3.32h0a1,1,0,0,0,.36-.27L45,39ZM38.55,43.56l-4.18-3.5L51.44,19.71l4.18,3.51Z"></path><path d="M22 14H33a1 1 0 0 0 0-2H22a1 1 0 0 0 0 2zM21 26H39a1 1 0 0 0 0-2H21a1 1 0 0 0 0 2zM31 37a1 1 0 0 0-1-1H21a1 1 0 0 0 0 2h9A1 1 0 0 0 31 37zM17 33H11a1 1 0 0 0-1 1v6a1 1 0 0 0 1 1h6a1 1 0 0 0 1-1V34A1 1 0 0 0 17 33zm-1 6H12V35h4zM27 48H21a1 1 0 0 0 0 2h6a1 1 0 0 0 0-2zM17 45H11a1 1 0 0 0-1 1v6a1 1 0 0 0 1 1h6a1 1 0 0 0 1-1V46A1 1 0 0 0 17 45zm-1 6H12V47h4zM13.29 28.71A1 1 0 0 0 14 29h.16a1 1 0 0 0 .73-.54l3-6a1 1 0 1 0-1.78-.9l-2.38 4.76-2-2a1 1 0 0 0-1.42 1.42zM13.29 16.71A1 1 0 0 0 14 17h.16a1 1 0 0 0 .73-.54l3-6a1 1 0 1 0-1.78-.9l-2.38 4.76-2-2a1 1 0 0 0-1.42 1.42z"></path></svg>